<?xml version="1.0" encoding="utf-8"?>
<!-- Generator: Adobe Illustrator 26.4.1, SVG Export Plug-In . SVG Version: 6.00 Build 0)  -->
<svg version="1.1" id="Layer_1" xmlns="http://www.w3.org/2000/svg" xmlns:xlink="http://www.w3.org/1999/xlink" x="0px" y="0px"
	 viewBox="0 0 512 512" style="enable-background:new 0 0 512 512;" xml:space="preserve">
<style type="text/css">
	.st0{fill:#FFFFFF;}
</style>
<g>
	<path class="st0" d="M33.2,455.8c2-11.7,3.9-23.2,5.8-34.6c2.6-15.8,5.2-31.5,7.9-47.3c1.5-8.9,7.6-13.6,16.7-14.2
		c18.3-1.2,25.8,5.4,24.4,24.1c-0.2,2.5,0,4.9,0,7.7c5.4,0,10.5,0,14.5,0c2.6-8,4.1-16,7.8-22.8c8.7-16,22.9-24.3,41.1-24.8
		c16.3-0.4,32.6-0.1,49.5-0.1c4.7-37.3,9.3-74.3,14-111.8c-1.4-0.4-2.6-0.8-3.8-1.2c-6.7-2.3-10.9-7.8-11-15.1
		c-0.1-5.3-0.1-10.7,0-16c0.2-9.1,6.8-15.9,15.8-15.9c48.1-0.1,96.3-0.1,144.4,0c8.7,0,15.3,6.9,15.6,15.7c0.1,4,0,8,0,12
		c0,12.6-2.9,16.6-15,20.6c2.9,26.3,5.9,52.7,8.8,79.1c0.3,0,0.6,0,0.9,0c4.1-21.3,8.2-42.6,12.3-63.9c3.1-16.3,6.5-32.7,9.3-49
		c0.8-4.6,0.6-9.6,0-14.2c-2.9-22.2,10.7-42.7,31.6-47.3c21.6-4.7,43.4,7.7,48.4,29c2.7,11.7,2.8,24.1,3.6,36.2
		c3,43.5,5.9,87.1,8.8,130.6c0.9,12.8,1.8,25.6,2.4,38.4c0.3,6.5,1.9,12.1,5.6,17.6c11.4,16.6,14.3,34.9,8.5,54.3
		c-7.9,26.3-32.3,44.5-59.7,44.8c-7.5,0.1-15,0-22.5,0c-9.5,0-13.1-1.3-20.9-7.9c-1,1.2-2.1,2.4-3.1,3.6
		c-25.3,30.1-71.8,26.1-91.4-8c-1.7-2.9-3.3-3.8-6.5-3.8c-27.5,0.1-55,0.1-82.5,0c-2.4,0-4.1,0.3-5.6,2.8
		c-12.9,22.1-34.5,32.3-58.9,28.3c-22.3-3.7-39.8-21.2-45-45.2c-0.1-0.5-0.3-0.9-0.6-1.6c-5.3,0-10.5,0-16.4,0c0,3.7-0.1,7.3,0,10.9
		c0.9,36.3-0.7,37.7-37.1,36.9c-8.5-0.2-17,0-25.5,0c-10.9-0.1-17.4-6.5-17.4-17.4c0-4.2,0-8.3,0-12.5c0-11.6,6.4-18,17.8-18
		C28.2,455.8,30.5,455.8,33.2,455.8z M264.3,306.4c-5.2,5.3-9.5,9.5-13.4,14c-1.5,1.8-2.8,4.5-2.8,6.9c-0.2,30.7-0.1,61.3-0.1,92
		c0,1.4,0.2,2.9,0.3,4.3c5.3,0,10.3,0,15.7,0c0-1.8,0-3.5,0-5.1c0-13.8,0-27.7,0-41.5c0-10.5,6.7-17.1,17.2-17.2
		c9.3-0.1,18.7-0.1,28,0.1c3.3,0.1,4.5-0.8,5.1-4.2c4-20.8,8.2-41.5,12.5-62.1c1.9-9.1,7.7-13.6,17-13.7c2,0,3.9,0,6.4,0
		c-1.8-16.2-3.5-31.9-5.3-47.7c-38,0-75.7,0-113.8,0c-3.3,26.5-6.6,52.9-10,79.7c3.5,0,6.7,0.1,9.8,0c2.2-0.1,5.1,0.2,6.6-1.1
		c5.3-4.4,10.2-9.4,16.2-15.1c-4.4-3.5-8-6.4-11.1-8.8c4.2-4.6,7.6-8.4,10.6-11.7c10.7,10.6,21.2,21,31,30.8
		c-3.2,3.5-6.6,7.3-10.7,11.9C270.5,314.1,267.7,310.6,264.3,306.4z M471,375.6c0-2.1,0.1-3.7,0-5.4c-1.3-19.4-2.6-38.9-3.9-58.3
		c-3-45.7-6-91.4-9.1-137.1c-0.8-12.1-10.5-21.9-22.5-23c-12.2-1.2-24.1,6.6-26.4,18.8c-1.1,6-0.7,12.7,0.7,18.7
		c10.6,45.5,21.6,90.9,32.5,136.4c4,16.6,8,33.2,12.1,49.9C459.9,375.6,465.1,375.6,471,375.6z M454.2,391.8
		c-4.8,19.2-9.5,37.9-14.2,56.6c-1.8,7.4-1.8,7.4-9.7,7.4c-7.4,0-14.8,0-22.4,0c0,2.1,0,3.4,0,4.7c0,8.8,2.4,11.2,11.2,11.3
		c6.5,0,13,0,19.5,0c19.9,0,35.2-8.4,44.2-26.3c9.1-18.1,6-35.5-5.8-51.5c-0.8-1-2.3-2-3.5-2.1C467.2,391.7,460.9,391.8,454.2,391.8
		z M200,448.2c0.2-22.1-17.7-40.3-39.7-40.4c-21.9-0.1-40,17.6-40.2,39.3c-0.3,22.1,17.5,40.4,39.5,40.6
		C181.5,488,199.8,470.2,200,448.2z M312,447.6c-0.1,22.1,17.8,40.2,39.9,40.2c21.8,0,39.9-17.8,40.1-39.5
		c0.2-22.1-17.6-40.3-39.6-40.5C330.2,407.7,312.1,425.6,312,447.6z M407.7,375.8c-19,0-37.5-0.1-56,0c-22.1,0.2-40.4,8.8-54.7,25.6
		c-13.3,15.5-18.4,33.8-16.8,54c5.6,0,10.8,0,15.8,0c0-2.9-0.1-5.4,0-7.8c0.8-22.4,10.8-39.4,30.7-49.5c20.1-10.2,40.3-8.7,58.2,5
		c7.6,5.9,14.9,4.1,22.8,4.7C407.7,396.9,407.7,386.6,407.7,375.8z M71.7,487.6c0-37.5,0-74.5,0-111.5c-3.2,0-6.1,0-9.3,0
		c-5.2,32-10.4,63.8-15.7,95.9c-7.8,0-15,0-22.4,0c0,5.5,0,10.5,0,15.6C40.3,487.6,55.9,487.6,71.7,487.6z M359.7,215.6
		c0-5.5,0-10.4,0-15.5c-47.9,0-95.6,0-143.4,0c0,5.3,0,10.4,0,15.5C264.2,215.6,311.8,215.6,359.7,215.6z M377.7,359.5
		c10.3,0,20.1,0,30,0c0.1-0.8,0.2-1.3,0.2-1.8c0-34.8,0.3-69.6-0.2-104.4c-0.1-7.2-2.9-14.3-4.4-21.5c-0.4,0.1-0.7,0.1-1.1,0.2
		C394,274.4,385.9,316.8,377.7,359.5z M199.7,407.5c0-15.9,0-31.6,0-47.5c-17.3,0-34.2-0.5-51.1,0.2c-10,0.4-17.8,5.9-23.4,14.3
		c-6.9,10.3-5,21.7-5,33.2c4.6-3.2,8.6-6.3,12.9-8.7c2.5-1.4,3.1-2.9,3-5.5c-0.1-5.8,0-11.5,0-17.3c5.6,0,10.7,0,16.3,0
		c0,5.5,0,10.8,0,15.8c5.5,0,10.4,0,15.9,0c0-5.4,0-10.6,0-15.8c5.6,0,10.6,0,15.9,0c0,6.2-0.1,12,0.1,17.8c0,1.4,0.7,3.3,1.7,4.1
		C190.2,401.3,194.8,404.2,199.7,407.5z M219.2,328c-5.7,31.8-2.1,63.7-3.3,95.4c5.9,0,10.9,0,15.8,0c0-32.1,0-63.7,0-95.4
		C227.3,328,223.3,328,219.2,328z M425.7,439.6c3.4-13.3,6.3-26.8,10.2-39.9c3.2-10.7,3.5-20.9,0.1-31.6c-3-9.5-4.8-19.4-7.1-29.1
		c-1.4-5.8-2.8-11.6-4.2-17.3c-0.3,0-0.5,0.1-0.8,0.1c0,1.3,0,2.6,0,4c0,26.8,0,53.6,0,80.4c0,11-6.3,17.4-17.2,17.7
		c-1.2,0-2.4,0.2-3.7,0.3c1.6,5.3,3.1,10.2,4.6,15.4C413.4,439.6,419.4,439.6,425.7,439.6z M342.5,296c-4.3,21.4-8.5,42.3-12.7,63.6
		c9.9,0,19.3,0,29.2,0c-2.4-21.3-4.7-42.4-7.1-63.6C348.6,296,345.8,296,342.5,296z M263.7,440.1c-16.3,0-32.2,0-47.9,0
		c0,5.3,0,10.2,0,15.4c16,0,31.8,0,47.9,0C263.7,450.4,263.7,445.4,263.7,440.1z M88.3,408c0,10.8,0,21.1,0,31.4
		c5.4,0,10.4,0,15.4,0c0-10.7,0-20.9,0-31.4C98.6,408,93.6,408,88.3,408z M280.4,376c0,7,0,13.4,0,17.2c5.3-5.4,11.8-11.9,17.1-17.2
		C293.4,376,287,376,280.4,376z"/>
	<path class="st0" d="M439.9,175.8c0,4.3-3.6,8-7.9,8c-4.3,0-8-3.6-8-7.9c0-4.4,3.6-8,7.9-8C436.2,167.9,439.9,171.5,439.9,175.8z"
		/>
	<path class="st0" d="M159.8,471.8c-13.2-0.1-24-11.1-23.8-24.4c0.2-13,11-23.7,24.1-23.6c13.3,0.1,24,11.1,23.8,24.4
		C183.8,461.2,172.9,471.9,159.8,471.8z M167.9,448c0.1-4.3-3.5-8-7.8-8.1c-4.3-0.1-8,3.5-8.1,7.8c-0.1,4.3,3.5,8,7.8,8.1
		C164.1,455.9,167.8,452.3,167.9,448z"/>
	<path class="st0" d="M375.9,447.8c0,13.3-11,24.1-24.2,24c-13-0.1-23.7-10.9-23.7-24c0-13.3,11-24.1,24.2-24
		C365.3,424,375.9,434.7,375.9,447.8z M359.9,448c0.1-4.3-3.5-8-7.8-8.1c-4.3-0.1-8,3.5-8.1,7.8c-0.1,4.3,3.5,8,7.8,8.1
		C356.1,455.9,359.8,452.3,359.9,448z"/>
</g>
</svg>
