<?xml version="1.0" encoding="utf-8"?>
<!-- Generator: Adobe Illustrator 26.4.1, SVG Export Plug-In . SVG Version: 6.00 Build 0)  -->
<svg version="1.1" id="Layer_1" xmlns="http://www.w3.org/2000/svg" xmlns:xlink="http://www.w3.org/1999/xlink" x="0px" y="0px"
	 viewBox="0 0 512 512" style="enable-background:new 0 0 512 512;" xml:space="preserve">
<style type="text/css">
	.st0{fill:#FFFFFF;}
</style>
<g>
	<path class="st0" d="M305.2,363.5c14.3-10.5,28.3-20.8,42.3-31.1c13.8-10.1,27.5-20.4,41.4-30.4c11-7.9,22.8-8.9,34.7-2.4
		c11.5,6.2,16.8,16.5,16.5,29.5c-0.2,7.5-2.8,14.3-7.8,19.9c-24.6,27.6-49.3,55.1-73.9,82.6c-6.8,7.6-15.1,11.9-25.3,12.9
		c-30.3,2.7-60.6,5.5-90.9,8.3c-3.1,0.3-6.7-0.3-9,1.2c-1.9,1.3-1.7,5.3-3.1,7.7c-2.9,5.1-5.7,10.3-9.4,14.7
		c-4.7,5.7-10.3,10.7-15.6,15.9c-15.6,15.5-38.3,15.6-53.8,0.1c-22.8-22.8-45.5-45.7-68.1-68.6c-15.3-15.5-15.2-37.9,0.1-53.6
		c5.2-5.3,10.4-10.6,15.7-15.8c11.9-11.9,28.2-14.8,43.4-7.6c2.2,1,3.7,0.6,5.6-0.5c11.7-6.5,23.2-13.5,35.4-19
		c11.9-5.5,25-7.1,38.2-7.2c14.7-0.1,29.4,0.2,44.1-0.1c26.1-0.4,42.3,22,39.2,42.3C304.9,362.5,305,362.8,305.2,363.5z
		 M163.7,365.9c1.4,1.1,2.7,1.8,3.7,2.8c17.9,17.9,36.1,35.5,53.3,54.1c5.3,5.7,10,6.7,17,6c29.6-3,59.3-5.7,89-8.2
		c6.5-0.6,11.5-2.8,15.9-7.8c22.9-26,46.1-51.7,69.3-77.5c4.5-5.1,5.2-9.3,2.1-12.8c-3.1-3.5-6.9-3.2-12.5,1
		c-28.5,21-57,42.1-85.7,62.8c-4.7,3.4-10.6,6.7-16.2,7.1c-14.7,1.1-29.6,1-44.4,0.7c-6.8-0.1-11.4-6.3-11.1-12.8
		c0.4-6.4,5.4-11.2,12.1-11.4c4-0.1,7.9,0.1,11.9-0.1c7.5-0.2,12.8-5.5,12.8-12.5c0-7-5.4-12.5-12.8-12.5c-15.1-0.1-30.2-0.3-45.3,0
		C201,345.1,182,352.8,163.7,365.9z M209,449.5c-1.9-3.4-3.1-7-5.4-9.3c-22.7-23.1-45.5-46-68.3-68.9c-5.6-5.6-12.7-5.5-18.4,0.1
		c-5.4,5.3-10.7,10.7-16,16c-6,6.1-6.1,13.2-0.1,19.3c22.7,22.9,45.4,45.8,68.1,68.6c5.6,5.6,12.8,5.7,18.4,0.2
		c5.7-5.5,11.4-11.1,16.7-17C206.1,456.2,207.1,452.9,209,449.5z"/>
	<path class="st0" d="M230.7,225.5c-26.3-19.6-27.1-53.5-8.3-73.9c18.7-20.3,50.6-20.9,70.4-1.5c19.3,18.9,21.6,55.9-8.3,76.6
		c10.6,4,20.5,9,28.4,16.9c6.2,6.2,11.7,13.1,16.8,20.2c4.4,6.1,2.4,13.8-3.6,17.4c-5.9,3.6-13.2,1.7-17.3-4.7
		c-12.5-19.9-30.4-30.5-53.9-30.2c-22.2,0.3-39.4,10.5-51.4,29.2c-3.8,5.9-8.5,8.4-13.9,7.3c-8.6-1.8-12.4-11.1-7.7-19
		c10.1-16.8,24.3-28.8,42.5-36.1C226.5,227.1,228.4,226.4,230.7,225.5z M283,184.9c0-13.7-11-24.6-24.6-24.6
		c-13.5,0.1-24.6,11.2-24.5,24.7c0.1,13.3,11.1,24.4,24.5,24.4C272,209.4,283,198.5,283,184.9z"/>
</g>
</svg>
