<?xml version="1.0" encoding="utf-8"?>
<!-- Generator: Adobe Illustrator 26.4.1, SVG Export Plug-In . SVG Version: 6.00 Build 0)  -->
<svg version="1.1" id="Layer_1" xmlns="http://www.w3.org/2000/svg" xmlns:xlink="http://www.w3.org/1999/xlink" x="0px" y="0px"
	 viewBox="0 0 512 512" style="enable-background:new 0 0 512 512;" xml:space="preserve">
<style type="text/css">
	.st0{fill:#FFFFFF;}
</style>
<path class="st0" d="M422.7,504c-111.2,0-221.9,0-333.1,0c-2-12.5-3.9-24.9-5.9-37.2c-7.3-46.7-14.6-93.4-21.9-140
	c-3.4-21.5-6.8-43-10-64.5c-0.4-3-1.5-4.4-4.5-5.2C21.9,249.8,4.8,224.2,8.5,199c4.2-28.1,26.6-47.8,54.1-47.6
	c26.8,0.2,49.7,20.4,52.9,47.2c2.1,17.6-3.4,32.8-16,45.3c-1.3,1.2-2.6,2.4-4,3.8c23.4,18.3,46.7,36.5,70,54.8
	c19.9-17.7,39.5-35.2,59.5-53.1c-16.7-13.5-24.8-30.5-22-51.8c1.8-13.7,8.4-25,18.9-33.8c21.7-18.2,54-16,73.6,4.6
	c17.4,18.3,23.6,55.6-7.9,81.2c9.9,8.8,19.7,17.6,29.5,26.4c9.9,8.8,19.7,17.6,29.8,26.6c23.3-18.3,46.5-36.5,70-54.9
	c-10.8-9-17.5-20.1-19.9-33.7c-5.1-28,15-56.9,43.1-61.7c29.9-5.1,58.2,14.2,63,42.9c4.8,28.2-10.9,53.6-38.3,61.8
	c-2.9,0.9-4,2.2-4.4,5.2c-8.8,57.1-17.8,114.1-26.7,171.1C430,456.8,426.4,480.2,422.7,504z M408.3,407.9
	c6.9-44,13.7-87.6,20.7-132.6c-28.5,22.3-55.8,43.7-83.3,65.2c-30-26.7-59.7-53.3-89.6-79.9c-30,26.8-59.7,53.3-89.6,79.9
	c-27.5-21.6-54.9-43-83.4-65.2c7.1,45.3,13.9,89,20.8,132.7C205.7,407.9,306.7,407.9,408.3,407.9z M403.7,437.4
	c-98.5,0-196.5,0-295.1,0c2,12.7,3.9,25,5.9,37.5c94.6,0,188.7,0,283.3,0C399.8,462.4,401.7,450,403.7,437.4z M256,230
	c13.8,0.1,25.1-11.1,25-24.8c-0.1-13.5-11.2-24.6-24.7-24.7c-13.7-0.1-25.1,11.2-25,24.9C231.4,218.9,242.4,229.9,256,230z
	 M86.8,205.4c0-13.7-10.8-24.8-24.4-24.9c-13.7-0.2-25.1,11-25.2,24.7c-0.1,13.6,10.9,24.7,24.4,24.8
	C75.6,230.1,86.7,219.3,86.8,205.4z M450.2,230c13.7,0,24.7-10.8,24.9-24.4c0.2-13.7-11-25.1-24.7-25.1c-13.6,0-24.7,10.9-24.8,24.5
	C425.4,218.9,436.3,230,450.2,230z"/>
</svg>
