<?xml version="1.0" encoding="utf-8"?>
<!-- Generator: Adobe Illustrator 27.6.1, SVG Export Plug-In . SVG Version: 6.00 Build 0)  -->
<svg version="1.1" id="Слой_1" xmlns="http://www.w3.org/2000/svg" xmlns:xlink="http://www.w3.org/1999/xlink" x="0px" y="0px"
	 viewBox="0 0 130 108" style="enable-background:new 0 0 130 108;" xml:space="preserve">
<style type="text/css">
	.st0{fill-rule:evenodd;clip-rule:evenodd;fill:url(#SVGID_1_);}
	.st1{fill-rule:evenodd;clip-rule:evenodd;fill:url(#SVGID_00000062183230183354413090000004191717657158158264_);}
	.st2{fill-rule:evenodd;clip-rule:evenodd;fill:url(#SVGID_00000010300796434989595590000012425643296957160114_);}
	.st3{fill-rule:evenodd;clip-rule:evenodd;fill:url(#SVGID_00000021829098735877071410000011380248015264826790_);}
	.st4{fill-rule:evenodd;clip-rule:evenodd;fill:url(#SVGID_00000147200560234568569880000009176212461693786035_);}
	.st5{fill-rule:evenodd;clip-rule:evenodd;fill:url(#SVGID_00000055683480492867323970000005178349407862344382_);}
	.st6{fill-rule:evenodd;clip-rule:evenodd;fill:url(#SVGID_00000092443182407871618100000007493808856930336144_);}
	.st7{fill-rule:evenodd;clip-rule:evenodd;fill:url(#SVGID_00000134967682837673854290000002135612988005608872_);}
	.st8{fill-rule:evenodd;clip-rule:evenodd;fill:url(#SVGID_00000075856110782131793250000015505343208598976162_);}
	.st9{fill-rule:evenodd;clip-rule:evenodd;fill:url(#SVGID_00000156587581218574904480000011745019336165142449_);}
	.st10{fill-rule:evenodd;clip-rule:evenodd;fill:url(#SVGID_00000072242411498210614480000003057610240066412212_);}
	.st11{fill-rule:evenodd;clip-rule:evenodd;fill:url(#SVGID_00000147931231108474772950000000508619304608265659_);}
	.st12{fill-rule:evenodd;clip-rule:evenodd;fill:url(#SVGID_00000100348177338436171190000017020628189911107467_);}
	.st13{fill-rule:evenodd;clip-rule:evenodd;fill:url(#SVGID_00000090985703750132668100000004526851176221769400_);}
	.st14{fill-rule:evenodd;clip-rule:evenodd;fill:url(#SVGID_00000057868896563937115500000013507559470972225674_);}
	.st15{fill-rule:evenodd;clip-rule:evenodd;fill:url(#SVGID_00000176013663469043009770000000568311200687258301_);}
	.st16{fill-rule:evenodd;clip-rule:evenodd;fill:url(#SVGID_00000127734877242293596920000006446309308388503680_);}
	.st17{fill-rule:evenodd;clip-rule:evenodd;fill:url(#SVGID_00000137109339756391747600000016694796464627659178_);}
	.st18{fill-rule:evenodd;clip-rule:evenodd;fill:url(#SVGID_00000088124029442041211920000014454219119016697988_);}
	.st19{fill-rule:evenodd;clip-rule:evenodd;fill:url(#SVGID_00000078009711708572748330000017156688260534233497_);}
	.st20{fill-rule:evenodd;clip-rule:evenodd;fill:url(#SVGID_00000022557031290674055170000013990943995561482898_);}
	.st21{fill-rule:evenodd;clip-rule:evenodd;fill:url(#SVGID_00000105411970842391239450000005190023528105129917_);}
	.st22{fill-rule:evenodd;clip-rule:evenodd;fill:url(#SVGID_00000001663558681169682210000015953969495191003801_);}
	.st23{fill-rule:evenodd;clip-rule:evenodd;fill:url(#SVGID_00000150801165782997406850000000858931492233519235_);}
	.st24{fill-rule:evenodd;clip-rule:evenodd;fill:url(#SVGID_00000114048583429492038350000005645979108791565203_);}
	.st25{fill-rule:evenodd;clip-rule:evenodd;fill:url(#SVGID_00000078767428509160593270000016396045628490456215_);}
	.st26{fill-rule:evenodd;clip-rule:evenodd;fill:url(#SVGID_00000109017615583042456340000004229877854487006896_);}
	.st27{fill-rule:evenodd;clip-rule:evenodd;fill:url(#SVGID_00000013188407156018824530000005731589441556867474_);}
	.st28{fill-rule:evenodd;clip-rule:evenodd;fill:url(#SVGID_00000108304748603983848630000015087752817369281465_);}
	.st29{fill-rule:evenodd;clip-rule:evenodd;fill:url(#SVGID_00000057144003671926535140000007071463139768893078_);}
	.st30{fill-rule:evenodd;clip-rule:evenodd;fill:url(#SVGID_00000019647418435362568510000012788967456617002686_);}
	.st31{fill-rule:evenodd;clip-rule:evenodd;fill:url(#SVGID_00000152243371781726498530000008763879442352035739_);}
	.st32{fill-rule:evenodd;clip-rule:evenodd;fill:url(#SVGID_00000136400732147285013970000013734799420978993579_);}
	.st33{fill-rule:evenodd;clip-rule:evenodd;fill:url(#SVGID_00000058576198543495587630000012827316226133919620_);}
	.st34{fill-rule:evenodd;clip-rule:evenodd;fill:url(#SVGID_00000065068367644192160320000006440277137814437761_);}
	.st35{fill-rule:evenodd;clip-rule:evenodd;fill:url(#SVGID_00000046336712073000574490000002859714140470895501_);}
	.st36{fill-rule:evenodd;clip-rule:evenodd;fill:url(#SVGID_00000014606870507868975410000006333044518653724069_);}
	.st37{fill-rule:evenodd;clip-rule:evenodd;fill:url(#SVGID_00000036973117184125351100000006440900664685914754_);}
	.st38{fill-rule:evenodd;clip-rule:evenodd;fill:url(#SVGID_00000001648529396895507760000009269042624390987953_);}
	.st39{fill-rule:evenodd;clip-rule:evenodd;fill:url(#SVGID_00000074419541509731758740000007326312845026415000_);}
	.st40{fill-rule:evenodd;clip-rule:evenodd;fill:url(#SVGID_00000054963012933983414180000016009744805879851427_);}
	.st41{fill-rule:evenodd;clip-rule:evenodd;fill:url(#SVGID_00000103241113470087627700000003695556906679174049_);}
	.st42{fill-rule:evenodd;clip-rule:evenodd;fill:url(#SVGID_00000124158693221027161350000016763930340167636910_);}
	.st43{fill-rule:evenodd;clip-rule:evenodd;fill:url(#SVGID_00000000220707985182515770000001856013704255073943_);}
</style>
<g>
	
		<linearGradient id="SVGID_1_" gradientUnits="userSpaceOnUse" x1="28.6393" y1="39.8093" x2="44.7004" y2="32.0977" gradientTransform="matrix(1 0 0 -1 0 72)">
		<stop  offset="0" style="stop-color:#634E42"/>
		<stop  offset="0.5191" style="stop-color:#CA9E67"/>
		<stop  offset="0.9975" style="stop-color:#634E42"/>
		<stop  offset="1" style="stop-color:#634E42"/>
	</linearGradient>
	<path class="st0" d="M45,42.3c-1-4.6-5.5-6.6-9.6-9c-3.4-2.2-5.1-3.3-7.9-6.1c-0.6,3.1-0.6,5.2,0.4,7c2.7,4.6,11.7,7.2,16,9.4
		c-1.5-3.7-8.1-5.5-11.8-8.2C36.3,36.8,42.2,38.6,45,42.3z"/>
	
		<linearGradient id="SVGID_00000049189898416431491290000015151788991524960653_" gradientUnits="userSpaceOnUse" x1="28.5888" y1="30.6542" x2="45.1933" y2="25.0251" gradientTransform="matrix(1 0 0 -1 0 72)">
		<stop  offset="0" style="stop-color:#634E42"/>
		<stop  offset="0.5191" style="stop-color:#CA9E67"/>
		<stop  offset="0.9975" style="stop-color:#634E42"/>
		<stop  offset="1" style="stop-color:#634E42"/>
	</linearGradient>
	<path style="fill-rule:evenodd;clip-rule:evenodd;fill:url(#SVGID_00000049189898416431491290000015151788991524960653_);" d="
		M45.5,47.8c-1.3-2.8-4.3-4.2-7.2-5.1c-7-2.5-6.9-1.2-10.3-5.1c0.1,2.1,0,4.5,0.6,5.5c1.5,2.2,4.8,3.9,12.9,4.8
		c1.2,0.1,2.4,0.6,3.3,0.9c-0.7-2.2-9.6-4.6-12.4-5.7C35.1,43.4,43.2,45.9,45.5,47.8z"/>
	
		<linearGradient id="SVGID_00000035522806901030985910000017339993570409605280_" gradientUnits="userSpaceOnUse" x1="28.9155" y1="23.6274" x2="44.3025" y2="20.465" gradientTransform="matrix(1 0 0 -1 0 72)">
		<stop  offset="0" style="stop-color:#634E42"/>
		<stop  offset="0.5191" style="stop-color:#CA9E67"/>
		<stop  offset="0.9975" style="stop-color:#634E42"/>
		<stop  offset="1" style="stop-color:#634E42"/>
	</linearGradient>
	<path style="fill-rule:evenodd;clip-rule:evenodd;fill:url(#SVGID_00000035522806901030985910000017339993570409605280_);" d="
		M44.4,51.6c-1.8-3.9-8.1-2.2-12.1-3.6c-1.6-0.6-2.5-1.6-3.4-2.1c-0.6,5.5,4.6,6.4,11.2,6.4c1,0,3.7,0.3,4.3,0.3
		c-0.9-1.6-9.9-1.5-12-2.7C34.4,49.8,42.5,50.5,44.4,51.6z"/>
	
		<linearGradient id="SVGID_00000047760652394828482210000018333977610568553378_" gradientUnits="userSpaceOnUse" x1="29.7368" y1="17.5508" x2="44.1622" y2="15.9813" gradientTransform="matrix(1 0 0 -1 0 72)">
		<stop  offset="0" style="stop-color:#634E42"/>
		<stop  offset="0.5191" style="stop-color:#CA9E67"/>
		<stop  offset="0.9975" style="stop-color:#634E42"/>
		<stop  offset="1" style="stop-color:#634E42"/>
	</linearGradient>
	<path style="fill-rule:evenodd;clip-rule:evenodd;fill:url(#SVGID_00000047760652394828482210000018333977610568553378_);" d="
		M44.1,55.8c-0.4-2.2-5.1-1.6-7-1.8c-0.7-0.1-3,0.1-4.3-0.3c-1.5-0.4-2.2-1.2-3.1-1.3c-0.3,4.6,4.2,5.1,9.7,4.8
		c0.9,0,4.3-0.4,4.8-0.4c-0.9-1.3-8.7-0.6-10.3-1.5C35.4,54.9,42.5,54.9,44.1,55.8z"/>
	
		<linearGradient id="SVGID_00000181800420812013752380000000242773244724867263_" gradientUnits="userSpaceOnUse" x1="3.4504" y1="64.4529" x2="29.8995" y2="41.496" gradientTransform="matrix(1 0 0 -1 0 72)">
		<stop  offset="0" style="stop-color:#634E42"/>
		<stop  offset="0.5191" style="stop-color:#CA9E67"/>
		<stop  offset="0.9975" style="stop-color:#634E42"/>
		<stop  offset="1" style="stop-color:#634E42"/>
	</linearGradient>
	<path style="fill-rule:evenodd;clip-rule:evenodd;fill:url(#SVGID_00000181800420812013752380000000242773244724867263_);" d="
		M4.6,0.4c2.2,9.4,9.4,13.2,17.5,19.4c1.2,0.9,3,1.9,2.8,3c0.1,2.7-0.7,1.9-3.6,0.3c-9.1-5.2-11.8-9.9-12.3-9.7
		c-1.5,0.4,4.9,6.9,6.6,8.1c2.8,2.1,5.5,3.4,9.3,5.2v3.7C10.8,23.8-2.5,14.4,4.6,0.4z"/>
	
		<linearGradient id="SVGID_00000175289171891260738460000014712049430401309312_" gradientUnits="userSpaceOnUse" x1="-5.689971e-03" y1="44.562" x2="25.675" y2="44.562" gradientTransform="matrix(1 0 0 -1 0 72)">
		<stop  offset="0" style="stop-color:#634E42"/>
		<stop  offset="0.5191" style="stop-color:#CA9E67"/>
		<stop  offset="0.9975" style="stop-color:#634E42"/>
		<stop  offset="1" style="stop-color:#634E42"/>
	</linearGradient>
	<path style="fill-rule:evenodd;clip-rule:evenodd;fill:url(#SVGID_00000175289171891260738460000014712049430401309312_);" d="
		M0.9,15.4c2.8,3.9,7,7.8,12.7,11.1c4.8,2.7,8.5,4.6,11.1,6.3c0.3,0.1,0.4,0.3,0.4,0.7c0,1,0,2.4-0.1,2.2c-4.6-2.4-5.7-3.3-7.9-4.5
		c-6.7-3.9-9.9-5.8-10.2-5.5C6.4,26.5,23.3,36,25.1,36.9l0.4,2.5C10.2,33.9-3.7,24.1,0.9,15.4z"/>
	
		<linearGradient id="SVGID_00000121990021658281803700000002133198093163372964_" gradientUnits="userSpaceOnUse" x1="2.1921" y1="33.7961" x2="26.768" y2="33.7961" gradientTransform="matrix(1 0 0 -1 0 72)">
		<stop  offset="0" style="stop-color:#634E42"/>
		<stop  offset="0.5191" style="stop-color:#CA9E67"/>
		<stop  offset="0.9975" style="stop-color:#634E42"/>
		<stop  offset="1" style="stop-color:#634E42"/>
	</linearGradient>
	<path style="fill-rule:evenodd;clip-rule:evenodd;fill:url(#SVGID_00000121990021658281803700000002133198093163372964_);" d="
		M2.4,28.4c1.9,3.7,5.7,5.4,10,7.3c3.4,1.5,7,2.8,10.3,4.3c1,0.4,3.3,1.5,3.4,2.4c0.6,1.9-0.9,1.3-3.3,0.6C15,40.7,12,38,11.7,38.1
		c-0.3,0.1,0.7,1.3,2.4,2.4c4,2.8,5.2,2.5,12,4.6l0.7,2.8C14.8,45.6,0.3,39.2,2.4,28.4z"/>
	
		<linearGradient id="SVGID_00000017514704464366576810000011723449813038203825_" gradientUnits="userSpaceOnUse" x1="8.8249" y1="23.0302" x2="28.75" y2="23.0302" gradientTransform="matrix(1 0 0 -1 0 72)">
		<stop  offset="0" style="stop-color:#634E42"/>
		<stop  offset="0.5191" style="stop-color:#CA9E67"/>
		<stop  offset="0.9975" style="stop-color:#634E42"/>
		<stop  offset="1" style="stop-color:#634E42"/>
	</linearGradient>
	<path style="fill-rule:evenodd;clip-rule:evenodd;fill:url(#SVGID_00000017514704464366576810000011723449813038203825_);" d="
		M27.4,50.8l-1-1.3c-5.7-1.5-12.7-3-17.5-6c1.9,8.8,9.7,10.6,19.9,10.9l-0.9-1.3c-6-1.3-7.9-1.3-13.2-4.5c3.6,0.9,7.3,2.1,11.2,2.8
		C27.5,51.7,28.4,52.2,27.4,50.8z"/>
	
		<linearGradient id="SVGID_00000072251715606592493440000006846430194484156555_" gradientUnits="userSpaceOnUse" x1="17.3333" y1="13.6226" x2="30.3832" y2="13.6226" gradientTransform="matrix(1 0 0 -1 0 72)">
		<stop  offset="0" style="stop-color:#634E42"/>
		<stop  offset="0.5191" style="stop-color:#CA9E67"/>
		<stop  offset="0.9975" style="stop-color:#634E42"/>
		<stop  offset="1" style="stop-color:#634E42"/>
	</linearGradient>
	<path style="fill-rule:evenodd;clip-rule:evenodd;fill:url(#SVGID_00000072251715606592493440000006846430194484156555_);" d="
		M29.5,56.8l-1-0.9c-3.9,0.1-7.8,0.4-11.1,0c2.4,5.8,9.3,5.8,13,3.3l-0.7-0.9c-4,0.4-4.3,1-8.2-0.1c2.4-0.1,3.9,0,6.4-0.3
		C29,57.6,30.4,57.6,29.5,56.8z"/>
	
		<linearGradient id="SVGID_00000103226809555630419990000008464831559550096802_" gradientUnits="userSpaceOnUse" x1="53.894" y1="-26.4196" x2="62.7359" y2="-26.4196" gradientTransform="matrix(1 0 0 -1 0 72)">
		<stop  offset="0" style="stop-color:#634E42"/>
		<stop  offset="0.5191" style="stop-color:#CA9E67"/>
		<stop  offset="0.9975" style="stop-color:#634E42"/>
		<stop  offset="1" style="stop-color:#634E42"/>
	</linearGradient>
	<path style="fill-rule:evenodd;clip-rule:evenodd;fill:url(#SVGID_00000103226809555630419990000008464831559550096802_);" d="
		M62.8,92.6l-0.9-0.7l-1.8,4.5c-0.3-2.1,0.4-3.1,1.3-4.9l-1-0.7L53.8,106C60,107.8,61,97.8,62.8,92.6z"/>
	
		<linearGradient id="SVGID_00000142149876746525662890000006112703961564437894_" gradientUnits="userSpaceOnUse" x1="48.4965" y1="-21.0696" x2="59.8418" y2="-27.4195" gradientTransform="matrix(1 0 0 -1 0 72)">
		<stop  offset="0" style="stop-color:#634E42"/>
		<stop  offset="0.5191" style="stop-color:#CA9E67"/>
		<stop  offset="0.9975" style="stop-color:#634E42"/>
		<stop  offset="1" style="stop-color:#634E42"/>
	</linearGradient>
	<path style="fill-rule:evenodd;clip-rule:evenodd;fill:url(#SVGID_00000142149876746525662890000006112703961564437894_);" d="
		M59.2,90l-0.9-0.7l-4.2,5.8c0.3-2.1,2.4-4.9,3.7-6.4l-0.9-1L46.2,102C51.7,105.3,56.2,94.7,59.2,90z"/>
	
		<linearGradient id="SVGID_00000146469402411698418760000015395089254098740652_" gradientUnits="userSpaceOnUse" x1="41.786" y1="-13.4606" x2="51.0703" y2="-22.4296" gradientTransform="matrix(1 0 0 -1 0 72)">
		<stop  offset="0" style="stop-color:#634E42"/>
		<stop  offset="0.5191" style="stop-color:#CA9E67"/>
		<stop  offset="0.9975" style="stop-color:#634E42"/>
		<stop  offset="1" style="stop-color:#634E42"/>
	</linearGradient>
	<path style="fill-rule:evenodd;clip-rule:evenodd;fill:url(#SVGID_00000146469402411698418760000015395089254098740652_);" d="
		M55.8,85.7l-0.6-1l-6.4,6.6c0.7-2.1,4.3-5.8,5.8-7L54,83L39.3,97.3C44.1,101.7,52,89.7,55.8,85.7z"/>
	
		<linearGradient id="SVGID_00000076582195981259795480000011513945747268125621_" gradientUnits="userSpaceOnUse" x1="85.721" y1="34.7151" x2="102.8629" y2="39.5707" gradientTransform="matrix(1 0 0 -1 0 72)">
		<stop  offset="0" style="stop-color:#634E42"/>
		<stop  offset="0.5191" style="stop-color:#CA9E67"/>
		<stop  offset="0.9975" style="stop-color:#634E42"/>
		<stop  offset="1" style="stop-color:#634E42"/>
	</linearGradient>
	<path style="fill-rule:evenodd;clip-rule:evenodd;fill:url(#SVGID_00000076582195981259795480000011513945747268125621_);" d="
		M85.1,41.7c1-4.6,5.5-6.6,9.6-9c3.4-2.2,5.1-3.3,7.9-6.1c0.6,3.1,0.6,5.2-0.4,7c-2.7,4.6-11.7,7.2-16,9.4c1.5-3.7,8.1-5.5,11.8-8.2
		C93.6,36.2,87.8,38.1,85.1,41.7z"/>
	
		<linearGradient id="SVGID_00000088110435892737183900000014753504657489320618_" gradientUnits="userSpaceOnUse" x1="85.2901" y1="26.5045" x2="102.1368" y2="31.3611" gradientTransform="matrix(1 0 0 -1 0 72)">
		<stop  offset="0" style="stop-color:#634E42"/>
		<stop  offset="0.5191" style="stop-color:#CA9E67"/>
		<stop  offset="0.9975" style="stop-color:#634E42"/>
		<stop  offset="1" style="stop-color:#634E42"/>
	</linearGradient>
	<path style="fill-rule:evenodd;clip-rule:evenodd;fill:url(#SVGID_00000088110435892737183900000014753504657489320618_);" d="
		M84.5,47.3c1.3-2.8,4.3-4.2,7.2-5.1c7-2.5,6.9-1.2,10.3-5.1c-0.1,2.1,0,4.5-0.6,5.5c-1.5,2.2-4.8,3.9-12.9,4.8
		c-1.2,0.1-2.4,0.6-3.3,0.9c0.7-2.2,9.6-4.6,12.4-5.7C94.8,42.8,86.7,45.5,84.5,47.3z"/>
	
		<linearGradient id="SVGID_00000150797430242464675800000012529115778230159750_" gradientUnits="userSpaceOnUse" x1="86.2759" y1="20.3739" x2="101.4812" y2="24.3186" gradientTransform="matrix(1 0 0 -1 0 72)">
		<stop  offset="0" style="stop-color:#634E42"/>
		<stop  offset="0.5191" style="stop-color:#CA9E67"/>
		<stop  offset="0.9975" style="stop-color:#634E42"/>
		<stop  offset="1" style="stop-color:#634E42"/>
	</linearGradient>
	<path style="fill-rule:evenodd;clip-rule:evenodd;fill:url(#SVGID_00000150797430242464675800000012529115778230159750_);" d="
		M85.5,51.1c1.8-3.9,8.1-2.2,12.1-3.6c1.6-0.6,2.5-1.6,3.4-2.1c0.6,5.5-4.6,6.4-11.2,6.4c-1,0-3.7,0.3-4.3,0.3
		c0.9-1.6,9.9-1.5,12-2.7C95.6,49.2,87.5,49.9,85.5,51.1z"/>
	
		<linearGradient id="SVGID_00000133525310138847253700000015562108361692226440_" gradientUnits="userSpaceOnUse" x1="85.7896" y1="15.6884" x2="100.5529" y2="18.7908" gradientTransform="matrix(1 0 0 -1 0 72)">
		<stop  offset="0" style="stop-color:#634E42"/>
		<stop  offset="0.5191" style="stop-color:#CA9E67"/>
		<stop  offset="0.9975" style="stop-color:#634E42"/>
		<stop  offset="1" style="stop-color:#634E42"/>
	</linearGradient>
	<path style="fill-rule:evenodd;clip-rule:evenodd;fill:url(#SVGID_00000133525310138847253700000015562108361692226440_);" d="
		M85.8,55.2c0.4-2.2,5.1-1.6,7-1.8c0.7-0.1,3,0.1,4.3-0.3c1.5-0.4,2.2-1.2,3.1-1.3c0.3,4.6-4.2,5.1-9.7,4.8c-0.9,0-4.3-0.4-4.8-0.4
		c0.9-1.3,8.7-0.6,10.3-1.5C94.5,54.4,87.5,54.4,85.8,55.2z"/>
	
		<linearGradient id="SVGID_00000151521086001308309200000010181107207420512191_" gradientUnits="userSpaceOnUse" x1="85.8921" y1="13.0409" x2="97.7951" y2="13.0409" gradientTransform="matrix(1 0 0 -1 0 72)">
		<stop  offset="0" style="stop-color:#634E42"/>
		<stop  offset="0.5191" style="stop-color:#CA9E67"/>
		<stop  offset="0.9975" style="stop-color:#634E42"/>
		<stop  offset="1" style="stop-color:#634E42"/>
	</linearGradient>
	<path style="fill-rule:evenodd;clip-rule:evenodd;fill:url(#SVGID_00000151521086001308309200000010181107207420512191_);" d="
		M86,58.9c0.4-1.5,2.8-1.5,5.1-1.2c4.6,0.6,3.6,0.4,6.7-0.4c-0.1,3.7-3.7,3.7-8.1,3c-0.7-0.1-3.4-0.7-3.7-0.7
		c0.7-0.9,6.9,0.3,8.4-0.3c-1.2,0.1-3.3-0.3-5.2-0.4C87.9,58.8,86.9,58.6,86,58.9z"/>
	
		<linearGradient id="SVGID_00000070816227245852620840000016106331731820562060_" gradientUnits="userSpaceOnUse" x1="84.5785" y1="9.0485" x2="94.2204" y2="9.0485" gradientTransform="matrix(1 0 0 -1 0 72)">
		<stop  offset="0" style="stop-color:#634E42"/>
		<stop  offset="0.5191" style="stop-color:#CA9E67"/>
		<stop  offset="0.9975" style="stop-color:#634E42"/>
		<stop  offset="1" style="stop-color:#634E42"/>
	</linearGradient>
	<path style="fill-rule:evenodd;clip-rule:evenodd;fill:url(#SVGID_00000070816227245852620840000016106331731820562060_);" d="
		M85.5,62.1c0.9-1.5,5.8,0.4,8.8,0.1c-0.7,2.5-3.1,2.7-6.1,1.5c-0.4-0.1-2.8-1.2-3.6-1.2c0.7-0.6,3.9,0.4,4.9,0.3
		C88.5,62.5,87.3,61.9,85.5,62.1z"/>
	
		<linearGradient id="SVGID_00000179624405261087243260000015687086246465893299_" gradientUnits="userSpaceOnUse" x1="83.6836" y1="5.9082" x2="89.9042" y2="5.9082" gradientTransform="matrix(1 0 0 -1 0 72)">
		<stop  offset="0" style="stop-color:#634E42"/>
		<stop  offset="0.5191" style="stop-color:#CA9E67"/>
		<stop  offset="0.9975" style="stop-color:#634E42"/>
		<stop  offset="1" style="stop-color:#634E42"/>
	</linearGradient>
	<path style="fill-rule:evenodd;clip-rule:evenodd;fill:url(#SVGID_00000179624405261087243260000015687086246465893299_);" d="
		M83.9,64.9c0.4-0.4,1.3-0.4,2.2,0c1.2,0.4,2.7,1.8,3.7,1.5c-1,1.8-2.5,1.5-4.5,0c-0.3-0.3-1.3-1-1.6-1.2c0.6-0.3,3.4,1.8,4.3,1.8
		c-0.6-0.3-1.5-0.9-2.4-1.5C84.9,65.2,84.3,64.9,83.9,64.9z"/>
	
		<linearGradient id="SVGID_00000021083059330689581730000018214587473636428728_" gradientUnits="userSpaceOnUse" x1="82.8573" y1="3.6757" x2="86.2103" y2="3.6757" gradientTransform="matrix(1 0 0 -1 0 72)">
		<stop  offset="0" style="stop-color:#634E42"/>
		<stop  offset="0.5191" style="stop-color:#CA9E67"/>
		<stop  offset="0.9975" style="stop-color:#634E42"/>
		<stop  offset="1" style="stop-color:#634E42"/>
	</linearGradient>
	<path style="fill-rule:evenodd;clip-rule:evenodd;fill:url(#SVGID_00000021083059330689581730000018214587473636428728_);" d="
		M83,67.3c0.3-0.4,0.7-0.3,1.2,0c0.6,0.4,1.5,1.5,2.1,1.3c-0.6,1.5-1.3,1.2-2.4,0c-0.1-0.1-0.7-0.9-0.9-1c0.3-0.3,1.8,1.5,2.2,1.5
		c-0.3-0.1-0.7-0.7-1.3-1.2C83.6,67.6,83.3,67.4,83,67.3z"/>
	
		<linearGradient id="SVGID_00000088850625393480916200000009041070387829942409_" gradientUnits="userSpaceOnUse" x1="104.8979" y1="57.0474" x2="127.349" y2="57.0474" gradientTransform="matrix(1 0 0 -1 0 72)">
		<stop  offset="0" style="stop-color:#634E42"/>
		<stop  offset="0.5191" style="stop-color:#CA9E67"/>
		<stop  offset="0.9975" style="stop-color:#634E42"/>
		<stop  offset="1" style="stop-color:#634E42"/>
	</linearGradient>
	<path style="fill-rule:evenodd;clip-rule:evenodd;fill:url(#SVGID_00000088850625393480916200000009041070387829942409_);" d="
		M125.3,0c-2.2,9.4-9.4,13.2-17.5,19.4c-1.2,0.9-3,1.9-2.8,3c-0.1,2.7,0.7,1.9,3.6,0.3c9.1-5.4,11.8-10,12.3-9.9
		c1.5,0.4-4.9,6.9-6.6,8.1c-2.8,2.1-5.5,3.4-9.3,5.2v3.7C119.2,23.3,132.6,13.9,125.3,0z"/>
	
		<linearGradient id="SVGID_00000017509983075704854500000003890166660735941281_" gradientUnits="userSpaceOnUse" x1="104.2873" y1="45.0853" x2="129.9678" y2="45.0853" gradientTransform="matrix(1 0 0 -1 0 72)">
		<stop  offset="0" style="stop-color:#634E42"/>
		<stop  offset="0.5191" style="stop-color:#CA9E67"/>
		<stop  offset="0.9975" style="stop-color:#634E42"/>
		<stop  offset="1" style="stop-color:#634E42"/>
	</linearGradient>
	<path style="fill-rule:evenodd;clip-rule:evenodd;fill:url(#SVGID_00000017509983075704854500000003890166660735941281_);" d="
		M129,15c-2.8,3.9-7,7.8-12.7,11.1c-4.8,2.7-8.5,4.6-11.1,6.3c-0.3,0.1-0.4,0.3-0.4,0.7c0,1,0,2.4,0.1,2.2c4.6-2.4,5.7-3.3,7.9-4.5
		c6.7-3.9,9.9-5.8,10.2-5.5c0.4,0.7-16.4,10.3-18.2,11.2l-0.6,2.4C119.8,33.3,133.8,23.6,129,15z"/>
	
		<linearGradient id="SVGID_00000146479727771055833390000013689721547043572360_" gradientUnits="userSpaceOnUse" x1="103.2147" y1="34.3194" x2="127.7906" y2="34.3194" gradientTransform="matrix(1 0 0 -1 0 72)">
		<stop  offset="0" style="stop-color:#634E42"/>
		<stop  offset="0.5191" style="stop-color:#CA9E67"/>
		<stop  offset="0.9975" style="stop-color:#634E42"/>
		<stop  offset="1" style="stop-color:#634E42"/>
	</linearGradient>
	<path style="fill-rule:evenodd;clip-rule:evenodd;fill:url(#SVGID_00000146479727771055833390000013689721547043572360_);" d="
		M127.5,27.8c-1.9,3.7-5.7,5.4-10,7.3c-3.4,1.5-7,2.8-10.3,4.3c-1,0.4-3.3,1.5-3.4,2.4c-0.6,1.9,0.9,1.3,3.3,0.6
		c7.9-2.4,10.8-5.1,11.1-4.9c0.3,0.1-0.7,1.3-2.4,2.4c-4,2.8-5.2,2.5-12,4.6l-0.6,3C115.1,45.2,129.6,38.6,127.5,27.8z"/>
	
		<linearGradient id="SVGID_00000168114984600024471100000016045005603428535695_" gradientUnits="userSpaceOnUse" x1="101.2042" y1="23.4788" x2="121.1294" y2="23.4788" gradientTransform="matrix(1 0 0 -1 0 72)">
		<stop  offset="0" style="stop-color:#634E42"/>
		<stop  offset="0.5191" style="stop-color:#CA9E67"/>
		<stop  offset="0.9975" style="stop-color:#634E42"/>
		<stop  offset="1" style="stop-color:#634E42"/>
	</linearGradient>
	<path style="fill-rule:evenodd;clip-rule:evenodd;fill:url(#SVGID_00000168114984600024471100000016045005603428535695_);" d="
		M102.6,50.4l1-1.3c5.7-1.5,12.7-3,17.5-6c-1.9,8.8-9.7,10.6-19.9,10.9l0.9-1.3c6-1.3,7.9-1.3,13.2-4.5c-3.6,0.9-7.3,2.1-11.2,2.8
		C102.6,51.1,101.5,51.7,102.6,50.4z"/>
	
		<linearGradient id="SVGID_00000029028439230514718350000001833591689978895799_" gradientUnits="userSpaceOnUse" x1="99.5872" y1="14.0712" x2="112.6371" y2="14.0712" gradientTransform="matrix(1 0 0 -1 0 72)">
		<stop  offset="0" style="stop-color:#634E42"/>
		<stop  offset="0.5191" style="stop-color:#CA9E67"/>
		<stop  offset="0.9975" style="stop-color:#634E42"/>
		<stop  offset="1" style="stop-color:#634E42"/>
	</linearGradient>
	<path style="fill-rule:evenodd;clip-rule:evenodd;fill:url(#SVGID_00000029028439230514718350000001833591689978895799_);" d="
		M100.5,56.2l1-0.7c3.9,0.1,7.8,0.4,11.1,0c-2.4,5.8-9.3,5.8-13,3.3l0.7-0.9c4,0.4,4.3,1,8.2-0.1c-2.4-0.1-3.9,0-6.4-0.3
		C100.9,57,99.6,57.1,100.5,56.2z"/>
	
		<linearGradient id="SVGID_00000077326553716914936300000012750800949558910128_" gradientUnits="userSpaceOnUse" x1="96.236" y1="9.1658" x2="106.3782" y2="9.1658" gradientTransform="matrix(1 0 0 -1 0 72)">
		<stop  offset="0" style="stop-color:#634E42"/>
		<stop  offset="0.5191" style="stop-color:#CA9E67"/>
		<stop  offset="0.9975" style="stop-color:#634E42"/>
		<stop  offset="1" style="stop-color:#634E42"/>
	</linearGradient>
	<path style="fill-rule:evenodd;clip-rule:evenodd;fill:url(#SVGID_00000077326553716914936300000012750800949558910128_);" d="
		M97.9,61.5l1-0.9c2.8,0.9,4.9,1.6,7.5,1.2c-0.6,1.8-1.9,2.8-3.4,3.3c-1.3,0.3-5.2-0.4-6.4-1.5c-0.3-0.3-0.4-0.6-0.1-0.7
		c0.3-0.3,0.7-0.1,1,0c2.8,0.7,3.4,1,6,0.4c-0.6-0.1-5.4-0.3-5.8-1.2C97.6,61.8,97.8,61.6,97.9,61.5z"/>
	
		<linearGradient id="SVGID_00000164497571779535087200000017472512615253380226_" gradientUnits="userSpaceOnUse" x1="92.7679" y1="4.8422" x2="100.9573" y2="4.8422" gradientTransform="matrix(1 0 0 -1 0 72)">
		<stop  offset="0" style="stop-color:#634E42"/>
		<stop  offset="0.5191" style="stop-color:#CA9E67"/>
		<stop  offset="0.9975" style="stop-color:#634E42"/>
		<stop  offset="1" style="stop-color:#634E42"/>
	</linearGradient>
	<path style="fill-rule:evenodd;clip-rule:evenodd;fill:url(#SVGID_00000164497571779535087200000017472512615253380226_);" d="
		M93.6,65.6c0.9-0.7,1.5-0.3,2.5,0c1.6,0.6,2.5,1,4.8,0.6c0.1,0.7-0.6,1.9-1.5,2.4c-1.5,0.9-2.7,0.3-4.3-0.4c-1-0.4-1.9-1-2.2-1.3
		c-0.1-0.1,0-0.4,0.1-0.6c0.1-0.1,0.4,0,0.6,0c1.9,0.7,2.4,0.7,4,0.9c-0.4-0.1-3.6-0.9-4.2-1.2C93.5,65.9,93.5,65.8,93.6,65.6z"/>
	
		<linearGradient id="SVGID_00000059994893092500029970000014475485159014112394_" gradientUnits="userSpaceOnUse" x1="88.8098" y1="2.4635" x2="95.0072" y2="2.4635" gradientTransform="matrix(1 0 0 -1 0 72)">
		<stop  offset="0" style="stop-color:#634E42"/>
		<stop  offset="0.5191" style="stop-color:#CA9E67"/>
		<stop  offset="0.9975" style="stop-color:#634E42"/>
		<stop  offset="1" style="stop-color:#634E42"/>
	</linearGradient>
	<path style="fill-rule:evenodd;clip-rule:evenodd;fill:url(#SVGID_00000059994893092500029970000014475485159014112394_);" d="
		M89.6,67.9c0.7-0.3,1.2,0,1.9,0.4c1,0.7,1.8,1.2,3.4,1.3c0,0.6-0.7,1.3-1.6,1.5c-1.3,0.4-2.1-0.3-3.1-1.2c-0.6-0.6-1.2-1-1.5-1.3
		c-0.1-0.1,0.1-0.3,0.1-0.4c0.1-0.1,0.3,0,0.4,0.1c1.3,0.9,1.6,1,2.8,1.3c-0.3-0.1-2.5-1.2-3-1.6C89.4,68,89.6,67.9,89.6,67.9z"/>
	
		<linearGradient id="SVGID_00000150071069312753188080000012866034702536883898_" gradientUnits="userSpaceOnUse" x1="86.1082" y1="0.6093" x2="90.9744" y2="0.6093" gradientTransform="matrix(1 0 0 -1 0 72)">
		<stop  offset="0" style="stop-color:#634E42"/>
		<stop  offset="0.5191" style="stop-color:#CA9E67"/>
		<stop  offset="0.9975" style="stop-color:#634E42"/>
		<stop  offset="1" style="stop-color:#634E42"/>
	</linearGradient>
	<path style="fill-rule:evenodd;clip-rule:evenodd;fill:url(#SVGID_00000150071069312753188080000012866034702536883898_);" d="
		M86.9,69.8c0.6-0.1,1,0.1,1.5,0.6c0.7,0.7,1.2,1.2,2.5,1.5c-0.1,0.4-0.7,0.9-1.5,1c-1,0.1-1.6-0.4-2.4-1.3c-0.4-0.6-0.9-1-1-1.3
		c-0.1-0.1,0.1-0.3,0.3-0.3c0.1-0.1,0.3,0.1,0.3,0.1c0.4,0.4,0.3,0.4,1.2,0.9c-0.1-0.1-0.9-0.7-1.2-1.2
		C86.7,69.8,86.7,69.8,86.9,69.8z"/>
	
		<linearGradient id="SVGID_00000111897608259186918710000008039644494101915266_" gradientUnits="userSpaceOnUse" x1="83.2658" y1="8.739156e-03" x2="87.0604" y2="8.739156e-03" gradientTransform="matrix(1 0 0 -1 0 72)">
		<stop  offset="0" style="stop-color:#634E42"/>
		<stop  offset="0.5191" style="stop-color:#CA9E67"/>
		<stop  offset="0.9975" style="stop-color:#634E42"/>
		<stop  offset="1" style="stop-color:#634E42"/>
	</linearGradient>
	<path style="fill-rule:evenodd;clip-rule:evenodd;fill:url(#SVGID_00000111897608259186918710000008039644494101915266_);" d="
		M83.9,70.7c0.4-0.1,0.7,0.1,1.2,0.4c0.6,0.6,1,0.9,2.1,1.2c-0.1,0.3-0.6,0.7-1.2,0.9c-0.9,0.1-1.3-0.3-1.8-1
		c-0.3-0.4-0.6-0.7-0.7-1c0-0.1,0.1-0.1,0.1-0.3c0.1,0,0.1,0,0.3,0.1c0.3,0.3,0.3,0.3,0.9,0.6C84.5,71.6,84,71.2,83.9,70.7
		C83.7,70.9,83.7,70.7,83.9,70.7z"/>
	
		<linearGradient id="SVGID_00000072982863406720321190000012274705723229994137_" gradientUnits="userSpaceOnUse" x1="59.4676" y1="-28.4816" x2="70.0633" y2="-28.4816" gradientTransform="matrix(1 0 0 -1 0 72)">
		<stop  offset="0" style="stop-color:#634E42"/>
		<stop  offset="0.5191" style="stop-color:#CA9E67"/>
		<stop  offset="0.9975" style="stop-color:#634E42"/>
		<stop  offset="1" style="stop-color:#634E42"/>
	</linearGradient>
	<path style="fill-rule:evenodd;clip-rule:evenodd;fill:url(#SVGID_00000072982863406720321190000012274705723229994137_);" d="
		M66.2,93.3l1,11.1c-0.1,0.6-1.9,2.7-2.4,3.3c-0.7-0.7-2.4-2.7-2.5-3.3l1.2-11.1c0.4,0,0.7,0.1,1,0.1l-0.1,4c0,0.3,0.3,0.4,0.3,0.4
		c0.1,0,0.3-0.1,0.3-0.4v-4C65.5,93.5,65.8,93.5,66.2,93.3z"/>
	
		<linearGradient id="SVGID_00000137124258318567768190000015359386414275390610_" gradientUnits="userSpaceOnUse" x1="68.0271" y1="-27.3769" x2="77.0863" y2="-25.1737" gradientTransform="matrix(1 0 0 -1 0 72)">
		<stop  offset="0" style="stop-color:#634E42"/>
		<stop  offset="0.5191" style="stop-color:#CA9E67"/>
		<stop  offset="0.9975" style="stop-color:#634E42"/>
		<stop  offset="1" style="stop-color:#634E42"/>
	</linearGradient>
	<path style="fill-rule:evenodd;clip-rule:evenodd;fill:url(#SVGID_00000137124258318567768190000015359386414275390610_);" d="
		M67.1,92.6l0.9-0.7l1.8,4.5c0.3-2.1-0.4-3.1-1.3-4.9l1-0.7l6.3,15.3C69.8,107.8,68.9,97.8,67.1,92.6z"/>
	
		<linearGradient id="SVGID_00000170250885626322270460000007582727710222873021_" gradientUnits="userSpaceOnUse" x1="73.202" y1="-27.0253" x2="83.1344" y2="-18.6359" gradientTransform="matrix(1 0 0 -1 0 72)">
		<stop  offset="0" style="stop-color:#634E42"/>
		<stop  offset="0.5191" style="stop-color:#CA9E67"/>
		<stop  offset="0.9975" style="stop-color:#634E42"/>
		<stop  offset="1" style="stop-color:#634E42"/>
	</linearGradient>
	<path style="fill-rule:evenodd;clip-rule:evenodd;fill:url(#SVGID_00000170250885626322270460000007582727710222873021_);" d="
		M70.6,90l0.9-0.7l4.2,5.8c-0.3-2.1-2.4-4.9-3.7-6.4l0.9-1L83.6,102C78.2,105.3,73.7,94.7,70.6,90z"/>
	
		<linearGradient id="SVGID_00000052806863522990844830000006478394085880118683_" gradientUnits="userSpaceOnUse" x1="78.6856" y1="-23.8283" x2="88.9123" y2="-10.8225" gradientTransform="matrix(1 0 0 -1 0 72)">
		<stop  offset="0" style="stop-color:#634E42"/>
		<stop  offset="0.5191" style="stop-color:#CA9E67"/>
		<stop  offset="0.9975" style="stop-color:#634E42"/>
		<stop  offset="1" style="stop-color:#634E42"/>
	</linearGradient>
	<path style="fill-rule:evenodd;clip-rule:evenodd;fill:url(#SVGID_00000052806863522990844830000006478394085880118683_);" d="
		M74,85.7l0.6-1l6.4,6.6c-0.7-2.1-4.3-5.8-5.8-7l0.6-1.2l14.7,14.4C85.8,101.7,77.9,89.7,74,85.7z"/>
	
		<linearGradient id="SVGID_00000061456242068429458790000005300219314112126090_" gradientUnits="userSpaceOnUse" x1="12.6372" y1="15.5875" x2="112.2601" y2="15.5875" gradientTransform="matrix(1 0 0 -1 0 72)">
		<stop  offset="0" style="stop-color:#634E42"/>
		<stop  offset="0.5191" style="stop-color:#CA9E67"/>
		<stop  offset="0.9975" style="stop-color:#634E42"/>
		<stop  offset="1" style="stop-color:#634E42"/>
	</linearGradient>
	<path style="fill-rule:evenodd;clip-rule:evenodd;fill:url(#SVGID_00000061456242068429458790000005300219314112126090_);" d="
		M79,55c0.4,13.5-0.6,24.1-10.9,32c-0.6,0.4-1.3,0.9-1.9,1.5l0,0l0,0c0,0-0.1,0-0.1,0.1L65,78.2l-0.9,10.5c0,0-0.1,0-0.1-0.1l0,0
		l0,0c-1.8-1.2-3.3-2.4-4.5-3.6c-7.9-7.6-8.8-17.6-8.4-29.9c1.8-1,10.3-3,13-3.6l0.9,8.7l0.9-8.7C68.8,52,77.9,54.4,79,55L79,55z
		 M72.8,73.1h-2.7v3.6h0.7v-2.8h1.3v2.8H73L72.8,73.1L72.8,73.1z M67.3,73.1h-0.7v0.6v2.8h0.7v-2.8h1.3v2.8h0.7v-2.8v-0.6h-0.7h-0.1
		H67.3L67.3,73.1L67.3,73.1z M69.7,66.4c0,1.3,0.3,2.2,1,3c0.7,0.7,1.6,1,2.8,1c0.9,0,1.8-0.3,2.4-0.7c0.6-0.6,1-1.3,1.2-2.2
		l-2.4-0.1c-0.1,0.9-0.4,1.3-1.2,1.3c-0.4,0-0.7-0.1-0.9-0.4c-0.1-0.3-0.3-0.9-0.3-1.8c0-1.6,0.4-2.4,1.2-2.4c0.3,0,0.6,0.1,0.7,0.3
		c0.1,0.3,0.3,0.6,0.3,1.2l2.4-0.1c-0.1-1-0.4-1.8-1-2.4c-0.6-0.6-1.5-0.9-2.7-0.9s-2.2,0.4-2.8,1.2C70,64.1,69.7,65.2,69.7,66.4
		L69.7,66.4z M56.8,67.9l1.6,2.5h3h0.1h1.9l0.4-1.6h2.2l0.4,1.6h2.7l-2.7-8.2h-2.8l-2.4,8.1l-2.8-4.2l2.5-3.7h-2.4l-1.3,2.2
		l-1.3-2.2h-3.1l2.7,3.9l-2.8,4.2h2.5L56.8,67.9L56.8,67.9z M64.4,67h1.3L65,64.6L64.4,67L64.4,67z M65.5,73.1l-0.7,1.9l-0.9-1.9
		h-0.7l1.2,2.8l-0.1,0.1H64h-0.3v0.6h0.4c0.1,0,0.3,0,0.4-0.1c0.1,0,0.1-0.1,0.3-0.3c0.1-0.1,0.1-0.3,0.3-0.4l1-2.8h-0.7V73.1z
		 M60,73.1v3.6h0.7v-1.3h0.7c0.3,0,0.4,0,0.6-0.1c0.1-0.1,0.3-0.1,0.4-0.4c0.1-0.1,0.1-0.3,0.1-0.6c0-0.1,0-0.4-0.1-0.6
		c-0.1-0.1-0.3-0.3-0.4-0.4C61.9,73,61.6,73,61.5,73h-0.7h-0.1H60V73.1z M60.6,74.6h0.7c0.1,0,0.1,0,0.1,0l0.1-0.1c0,0,0-0.1,0-0.3
		c0-0.1,0-0.1,0-0.3l-0.1-0.1h-0.1h-0.7V74.6L60.6,74.6z M58,76.6v-2.8h1.5v-0.6c-0.7,0-1.5,0-2.2,0v3.6H58V76.6z M69.5,30.4
		c-2.5,2.8-3.6,10.9-2.8,15.6l-1.5-0.4l-2.7,0.9C61.9,39.9,67.1,30.1,69.5,30.4L69.5,30.4z M69.5,46.7l8.2,2.2
		c0.6-0.9,1.2-1.8,1.5-2.1c7.2-5.7,2.5-8.2,5.4-12.3c0.9-1.2,4.5-3.4,7.5-5.4c3-1.9,5.7-3.7,6-3.3c0.4,0.7-7.3,5.2-10.6,7.6
		c-1.6,1.2-2.2,1.5-2.5,3.3l-0.1,1.3l4-3.1c2.4-1.8,12-7.6,12.7-9.9c0.3-1,0-2.8,0-5.8c-5.5,4.9-12.3,9.1-18.4,13.3
		c-3.4,2.8-1,3.9-2.2,6c-0.9,1.8-1.9,3-3.1,4.3c-3.9-5.2-6.4-7-5.5-14.5c0-0.3,0.3-0.6,0.6-0.6c1-0.4,2.2-0.7,3.4-1
		c2.1-0.4,1.9,0.3,2.4,1.8c0.6-0.7,1.2-1.8,1.3-2.7c0.3-1.6-0.9-3-2.7-3.6c-1.6-0.6-3.1-0.4-4-2.2c-0.4-0.7-1.9-1-3.1-1.3
		c-5.7-1.5-11.8,1.8-14.4,6.1c-1.9,3.4-5.2,10.2-6,14.5c-0.3-0.4-0.6-0.9-0.7-1.3c-1.2-2.2,1.2-3.3-2.2-6
		c-6.1-4.2-12.9-8.2-18.4-13.3c0,3-0.4,4.8,0,5.8c0.7,2.2,10.2,8.1,12.7,9.9l4,3.1L45,36.2c-0.3-1.8-0.9-2.2-2.5-3.3
		C39,30.5,31.4,26,31.9,25.3c0.4-0.6,3,1.3,6,3.3c3.1,1.9,6.7,4.2,7.5,5.4c2.8,4.2-1.6,6.6,5.4,12.3c0.4,0.3,1,1.8,1.5,3l9-2.7
		c-0.9-6.1,0.6-11.2,4.9-15.7c1.8-1.8,1.5-1.6-0.4-0.4c-3,1.8-5.2,3.7-7.2,6.4c-0.9,1.2-1.2,1.9-0.6-0.1c0.7-2.7,2.1-4.6,4.9-6
		c1.8-0.9,3.7-1.6,5.7-2.5c0.6-0.3,1-0.4,1.6-0.6c2.7-1,3.3-1.2-0.1-0.6c-2.4,0.3-4.6,0.9-7,1.6c-3.7,1.2-6,3-7.6,6.3
		c-1,1.9-0.9,1.5-0.4-0.3c0.7-2.7,2.7-4.5,5.1-5.8c0.4-0.3,1-0.6,1.6-0.9c0.3-0.1,1.6-0.7,1.6-1c-0.1-0.3-5.8,1.9-6.6,2.1
		c-1.2,0.4-1.3,0.6-0.6-0.4c0.4-0.6,1-1.3,1.6-1.8c1-0.7,2.2-1.3,3.3-1.9c0-0.1-0.1-0.1-0.1-0.3c-1.6,0.6-3.1,1.2-4.8,1.9
		c1.2-1.5,2.8-2.1,4.5-2.7c0.3-0.1,1.2-0.1,1-0.4c0-0.1-0.4,0-1,0c-1.2,0.1-2.8,0.7-3.3,0.7c1.2-1.6,3-2.2,4.8-3
		c-0.6,0.1-1.2,0.1-1.9,0.3c2.7-2.1,9.3-2.5,12.1-1c1,0.6,1,1,0.3,1.8c-0.1,0.1-0.3,0.4-0.4,0.6c-0.3,1.8-1.3,3-3.1,3.7
		c2.1-0.7,4.2-0.6,6.4-0.1c-1,0.3-1.6,0.4-2.2,0.6c-1.3,0.3-2.1,1-2.2,2.4c-0.4,3.4,0.1,6.6,1.5,9.7c0.3,0.6,2.7,5.1,2.5,5.4
		c-0.3,0.3-3.3-3.7-3.7-4.2c-1.6-2.5-1.8-5.4-1.5-8.2C67.9,37.1,66.4,43.1,69.5,46.7L69.5,46.7z M65,46.1c-6,1.8-12,3.4-17.9,5.2
		c0,0-1.9,7.6,1.3,21.2c2.1,9.1,8.8,16.9,16.6,22l0,0l0,0c7.8-5.1,14.5-12.9,16.6-22C84.9,58.8,83,51.3,83,51.3
		C77,49.5,71,47.8,65,46.1L65,46.1z M66.1,22.7c-0.4,0-0.4,0-0.3-0.4c0.6-0.9,1-0.7,2.2-1.2c-0.4,0-0.7-0.1-1-0.1
		c-0.7-0.3-0.4-0.3,0.3-0.3c1.5,0,2.8,0.6,3.1,1.3c0.1,0.3,0.1,0.3-0.1,0.4c-0.6,0.3-1.2,0.6-1.8,0.6C67.6,23.2,66.8,22.9,66.1,22.7
		L66.1,22.7z M72.7,23.2c0.1-0.3,0.7-0.9,0.9-0.9c1.5,0.4,3,0.7,4.3,1.5c1.6,0.7,1.6,2.4,0.7,3.6c-0.6-1.3-1.3-1.6-6.7-2.1
		C72.2,24.7,72.4,23.9,72.7,23.2L72.7,23.2z M65,92.1c4.9-3.1,12.6-10,14.8-19.9c2.8-12.3,1-19.1,1-19.1s-2.2-0.7-8.7-2.4
		c-4.9-1.3-6.7-2.1-7.2-2.2c-0.6,0.3-2.2,1-7.2,2.2c-6.4,1.6-8.7,2.4-8.7,2.4s-1.8,6.9,1,19.1C52.6,82.1,60.1,89,65,92.1z"/>
	
		<linearGradient id="SVGID_00000137827922422325847660000009027832192265630616_" gradientUnits="userSpaceOnUse" x1="32.2157" y1="12.9286" x2="44.0649" y2="11.7974" gradientTransform="matrix(1 0 0 -1 0 72)">
		<stop  offset="0" style="stop-color:#634E42"/>
		<stop  offset="0.5191" style="stop-color:#CA9E67"/>
		<stop  offset="0.9975" style="stop-color:#634E42"/>
		<stop  offset="1" style="stop-color:#634E42"/>
	</linearGradient>
	<path style="fill-rule:evenodd;clip-rule:evenodd;fill:url(#SVGID_00000137827922422325847660000009027832192265630616_);" d="
		M44.1,59.5C43.7,58,41.3,58,39,58.3c-4.6,0.6-3.6,0.4-6.7-0.4c0.1,3.7,3.7,3.7,8.1,3c0.7-0.1,3.4-0.7,3.7-0.7
		c-0.7-0.9-6.9,0.3-8.4-0.3c1.2,0.1,3.3-0.3,5.2-0.4C42,59.2,43.1,59.2,44.1,59.5z"/>
	
		<linearGradient id="SVGID_00000008133245926168356360000017582628195544883622_" gradientUnits="userSpaceOnUse" x1="35.7791" y1="8.8718" x2="45.3802" y2="8.0751" gradientTransform="matrix(1 0 0 -1 0 72)">
		<stop  offset="0" style="stop-color:#634E42"/>
		<stop  offset="0.5191" style="stop-color:#CA9E67"/>
		<stop  offset="0.9975" style="stop-color:#634E42"/>
		<stop  offset="1" style="stop-color:#634E42"/>
	</linearGradient>
	<path style="fill-rule:evenodd;clip-rule:evenodd;fill:url(#SVGID_00000008133245926168356360000017582628195544883622_);" d="
		M44.6,62.7c-0.9-1.5-5.8,0.4-8.8,0.1c0.7,2.5,3.1,2.7,6.1,1.5c0.4-0.1,2.8-1.2,3.6-1.2c-0.7-0.6-3.9,0.4-4.9,0.3
		C41.4,63,42.8,62.4,44.6,62.7z"/>
	
		<linearGradient id="SVGID_00000119809253772099100500000017090739828952040844_" gradientUnits="userSpaceOnUse" x1="40.0664" y1="5.4596" x2="46.2871" y2="5.4596" gradientTransform="matrix(1 0 0 -1 0 72)">
		<stop  offset="0" style="stop-color:#634E42"/>
		<stop  offset="0.5191" style="stop-color:#CA9E67"/>
		<stop  offset="0.9975" style="stop-color:#634E42"/>
		<stop  offset="1" style="stop-color:#634E42"/>
	</linearGradient>
	<path style="fill-rule:evenodd;clip-rule:evenodd;fill:url(#SVGID_00000119809253772099100500000017090739828952040844_);" d="
		M46.1,65.3c-0.4-0.4-1.3-0.4-2.2,0c-1.2,0.4-2.7,1.8-3.7,1.5c1,1.8,2.5,1.5,4.5,0c0.3-0.3,1.3-1,1.6-1.2c-0.6-0.3-3.4,1.8-4.3,1.8
		c0.6-0.3,1.5-0.9,2.4-1.5C45,65.6,45.6,65.5,46.1,65.3z"/>
	
		<linearGradient id="SVGID_00000086690143549498009810000009386431109043944360_" gradientUnits="userSpaceOnUse" x1="43.7604" y1="3.0776" x2="47.1133" y2="3.0776" gradientTransform="matrix(1 0 0 -1 0 72)">
		<stop  offset="0" style="stop-color:#634E42"/>
		<stop  offset="0.5191" style="stop-color:#CA9E67"/>
		<stop  offset="0.9975" style="stop-color:#634E42"/>
		<stop  offset="1" style="stop-color:#634E42"/>
	</linearGradient>
	<path style="fill-rule:evenodd;clip-rule:evenodd;fill:url(#SVGID_00000086690143549498009810000009386431109043944360_);" d="
		M47,67.9c-0.3-0.4-0.7-0.3-1.2,0c-0.6,0.4-1.5,1.5-2.1,1.3c0.6,1.5,1.3,1.2,2.4,0c0.1-0.1,0.7-0.9,0.9-1c-0.3-0.3-1.8,1.5-2.2,1.5
		c0.3-0.1,0.7-0.7,1.3-1.2C46.4,68.2,46.8,67.9,47,67.9z"/>
	
		<linearGradient id="SVGID_00000044879056515597396000000017812428750527637419_" gradientUnits="userSpaceOnUse" x1="23.5924" y1="8.7172" x2="33.7346" y2="8.7172" gradientTransform="matrix(1 0 0 -1 0 72)">
		<stop  offset="0" style="stop-color:#634E42"/>
		<stop  offset="0.5191" style="stop-color:#CA9E67"/>
		<stop  offset="0.9975" style="stop-color:#634E42"/>
		<stop  offset="1" style="stop-color:#634E42"/>
	</linearGradient>
	<path style="fill-rule:evenodd;clip-rule:evenodd;fill:url(#SVGID_00000044879056515597396000000017812428750527637419_);" d="
		M32,61.9L31,61c-2.8,0.9-4.9,1.6-7.5,1.2c0.6,1.8,1.9,2.8,3.4,3.3c1.3,0.3,5.2-0.4,6.4-1.5c0.3-0.3,0.4-0.6,0.1-0.7
		c-0.3-0.3-0.7-0.1-1,0c-2.8,0.7-3.4,1-6,0.4c0.6-0.1,5.4-0.3,5.8-1.2C32.3,62.4,32.3,62.2,32,61.9z"/>
	
		<linearGradient id="SVGID_00000097464826324017995820000013520591514688962698_" gradientUnits="userSpaceOnUse" x1="29.0133" y1="4.2441" x2="37.2027" y2="4.2441" gradientTransform="matrix(1 0 0 -1 0 72)">
		<stop  offset="0" style="stop-color:#634E42"/>
		<stop  offset="0.5191" style="stop-color:#CA9E67"/>
		<stop  offset="0.9975" style="stop-color:#634E42"/>
		<stop  offset="1" style="stop-color:#634E42"/>
	</linearGradient>
	<path style="fill-rule:evenodd;clip-rule:evenodd;fill:url(#SVGID_00000097464826324017995820000013520591514688962698_);" d="
		M36.3,66.2c-0.9-0.7-1.5-0.3-2.5,0c-1.6,0.6-2.5,1-4.8,0.6c-0.1,0.7,0.6,1.9,1.5,2.4c1.5,0.9,2.7,0.3,4.3-0.4c1-0.4,1.9-1,2.2-1.3
		c0.1-0.1,0-0.4-0.1-0.6c-0.1-0.1-0.4,0-0.6,0c-1.9,0.7-2.4,0.7-4,0.9c0.4-0.1,3.6-0.9,4.2-1.2C36.6,66.5,36.5,66.4,36.3,66.2z"/>
	
		<linearGradient id="SVGID_00000066504159519801864310000005330976803488698301_" gradientUnits="userSpaceOnUse" x1="34.9634" y1="2.0149" x2="41.1609" y2="2.0149" gradientTransform="matrix(1 0 0 -1 0 72)">
		<stop  offset="0" style="stop-color:#634E42"/>
		<stop  offset="0.5191" style="stop-color:#CA9E67"/>
		<stop  offset="0.9975" style="stop-color:#634E42"/>
		<stop  offset="1" style="stop-color:#634E42"/>
	</linearGradient>
	<path style="fill-rule:evenodd;clip-rule:evenodd;fill:url(#SVGID_00000066504159519801864310000005330976803488698301_);" d="
		M40.4,68.3c-0.7-0.3-1.2,0-1.9,0.4c-1,0.7-1.8,1.2-3.4,1.3c0,0.6,0.7,1.3,1.6,1.5c1.3,0.4,2.1-0.3,3.1-1.2c0.6-0.6,1.2-1,1.5-1.3
		c0.1-0.1-0.1-0.3-0.1-0.4c-0.1-0.1-0.3,0-0.4,0.1c-1.3,0.9-1.6,1-2.8,1.3c0.3-0.1,2.5-1.2,3-1.6C40.5,68.6,40.5,68.5,40.4,68.3z"/>
	
		<linearGradient id="SVGID_00000121274365725044552390000002223908899804801188_" gradientUnits="userSpaceOnUse" x1="38.9962" y1="0.1607" x2="43.8624" y2="0.1607" gradientTransform="matrix(1 0 0 -1 0 72)">
		<stop  offset="0" style="stop-color:#634E42"/>
		<stop  offset="0.5191" style="stop-color:#CA9E67"/>
		<stop  offset="0.9975" style="stop-color:#634E42"/>
		<stop  offset="1" style="stop-color:#634E42"/>
	</linearGradient>
	<path style="fill-rule:evenodd;clip-rule:evenodd;fill:url(#SVGID_00000121274365725044552390000002223908899804801188_);" d="
		M43.1,70.3c-0.6-0.1-1,0.1-1.5,0.6c-0.7,0.7-1.2,1.2-2.5,1.5c0.1,0.4,0.7,0.9,1.5,1c1,0.1,1.6-0.4,2.4-1.3c0.4-0.6,0.9-1,1-1.3
		c0.1-0.1-0.1-0.3-0.3-0.3c-0.1-0.1-0.3,0.1-0.3,0.1c-0.4,0.4-0.3,0.4-1.2,0.9c0.1-0.1,0.9-0.7,1.2-1.2
		C43.4,70.4,43.2,70.4,43.1,70.3z"/>
	
		<linearGradient id="SVGID_00000111165176580982719370000007370931892407175314_" gradientUnits="userSpaceOnUse" x1="42.9104" y1="-0.5894" x2="46.7048" y2="-0.5894" gradientTransform="matrix(1 0 0 -1 0 72)">
		<stop  offset="0" style="stop-color:#634E42"/>
		<stop  offset="0.5191" style="stop-color:#CA9E67"/>
		<stop  offset="0.9975" style="stop-color:#634E42"/>
		<stop  offset="1" style="stop-color:#634E42"/>
	</linearGradient>
	<path style="fill-rule:evenodd;clip-rule:evenodd;fill:url(#SVGID_00000111165176580982719370000007370931892407175314_);" d="
		M46.1,71.3c-0.4-0.1-0.7,0.1-1.2,0.4c-0.6,0.6-1,0.9-2.1,1.2c0.1,0.3,0.6,0.7,1.2,0.9c0.9,0.1,1.3-0.3,1.8-1c0.3-0.4,0.6-0.7,0.7-1
		c0-0.1-0.1-0.1-0.1-0.3c-0.1,0-0.1,0-0.3,0.1c-0.3,0.3-0.3,0.3-0.9,0.6C45.5,72.1,46.1,71.6,46.1,71.3
		C46.2,71.3,46.2,71.3,46.1,71.3z"/>
</g>
</svg>
