<?xml version="1.0" encoding="utf-8"?>
<!-- Generator: Adobe Illustrator 26.4.1, SVG Export Plug-In . SVG Version: 6.00 Build 0)  -->
<svg version="1.1" id="Layer_1" xmlns="http://www.w3.org/2000/svg" xmlns:xlink="http://www.w3.org/1999/xlink" x="0px" y="0px"
	 viewBox="0 0 512 512" style="enable-background:new 0 0 512 512;" xml:space="preserve">
<style type="text/css">
	.st0{fill:#FFFFFF;}
</style>
<g>
	<path class="st0" d="M453.4,173.4c0,25.5,0.2,51.1,0,76.6c-0.8,74-30.9,133.3-90.2,177.5c-33.8,25.1-68.1,49.6-102.1,74.5
		c-3.9,2.9-6.3,2.7-10.1-0.1c-35.3-26-71.2-51.1-106.1-77.6c-51-38.7-79.3-90.5-85.3-154.3c-0.6-6.1-0.8-12.3-0.8-18.5
		c-0.1-55.9,0-111.7-0.1-167.6c0-3.9,1.2-5.6,4.8-6.9c62.7-22.7,125.4-45.5,188.1-68.1c2.7-1,6.4-1,9.1,0
		C323,31.3,385.4,54,447.8,76.5c4.7,1.7,5.7,3.9,5.7,8.4C453.3,114.4,453.4,143.9,453.4,173.4z M91.5,101.8c0,2,0,3.7,0,5.4
		c0,48-0.4,95.9,0.1,143.9c0.6,62,26.1,111.7,75.6,148.9c19,14.3,38.4,28.1,57.7,42.1c10.4,7.5,20.7,15,31.1,22.6
		c30.7-22.3,61.4-43.8,91.2-66.6c47.9-36.6,72.4-85.7,73.1-146c0.6-48.5,0.1-97,0.1-145.4c0-1.5,0-3.1,0-4.6c-1-0.5-1.7-0.9-2.5-1.2
		c-53-19.3-106-38.6-159.1-57.7c-1.8-0.7-4.4-0.5-6.3,0.2c-38,13.7-75.9,27.5-113.8,41.3C123.1,90.3,107.4,96,91.5,101.8z"/>
	<path class="st0" d="M186.1,214.9c16.1,16.2,32.6,32.6,49.1,49.2c30.4-30.4,60.6-60.7,90.5-90.7c8.2,8.2,15.8,15.8,23.2,23.2
		c-37.6,37.6-75.5,75.5-112.9,112.9c-24-24-48.3-48.3-72.3-72.3C170.6,230.3,178.2,222.7,186.1,214.9z"/>
</g>
</svg>
