<?xml version="1.0" encoding="utf-8"?>
<!-- Generator: Adobe Illustrator 26.4.1, SVG Export Plug-In . SVG Version: 6.00 Build 0)  -->
<svg version="1.1" id="Layer_1" xmlns="http://www.w3.org/2000/svg" xmlns:xlink="http://www.w3.org/1999/xlink" x="0px" y="0px"
	 viewBox="0 0 512 512" style="enable-background:new 0 0 512 512;" xml:space="preserve">
<style type="text/css">
	.st0{fill:#FFFFFF;}
</style>
<path class="st0" d="M388.7,347.5c10.3-5.4,17-4.5,25.4,3.9c23,22.9,46.3,45.5,68.7,68.9c22.7,23.6,13.9,63-16.5,75.1
	c-19.5,7.7-37.1,3.5-52-11.1c-18.8-18.5-37.3-37.2-55.9-55.7c-3.7-3.7-7.3-7.3-11-10.9c-8.2-8.2-9.2-15-4-24.7
	c-24.4-24.5-48.7-48.9-73-73.3c-22.8,23-46,46.3-69.5,70c0.2,0.3,0.9,1.2,1.5,2.1c5.4,7.5,5,16.9-1.6,23.4
	c-23.5,23.6-46.8,47.3-70.7,70.4c-18.6,18-47.9,17.1-65.9-1.2c-17.8-18.1-18-47.1,0.1-65.5c23-23.4,46.3-46.4,69.5-69.5
	c7.6-7.6,16-7.6,27.1,0.1c6.7-6.8,13.4-13.7,20.2-20.6c3.9-3.8,7.9-4.1,11.1-0.9c3.1,3.1,2.9,7.3-0.8,11.1
	c-6.8,6.9-13.7,13.7-20.2,20.3c6.4,6.4,12.5,12.5,18.6,18.6c41.2-41.6,82.8-83.4,124.2-125.2c-5.4-5.3-11.5-11.4-17.9-17.8
	c-1,0.9-2.3,2-3.5,3.3c-25.9,25.9-51.9,51.8-77.8,77.7c-1.1,1.1-2.2,2.4-3.5,3.3c-3.4,2.4-6.8,2.2-9.6-0.8c-2.8-3-2.9-6.5-0.1-9.6
	c3.3-3.7,7-7.2,10.5-10.7c6.2-6.1,12.4-12.3,18.2-17.9c-22.6-22.7-45-45.2-67.7-68.1c-3.5,4.9-8.9,4.5-14.7,3.5
	c-6.8-1.2-13.8-1.6-20.7-2.1c-5-0.3-9.6-1.3-13-6.3c-7.9,8.8-15.8,17.1-23,25.8c-22.1,26.6-43.9,53.3-65.8,80c-3.3,4-6.3,9-12.6,6.4
	c-6.1-2.5-4.7-8.1-4.5-13c1.6-45.4,11.9-88.7,32.5-129.4c3.8-7.5,8-14.7,12.2-22c2.1-3.7,4-7.3,4.8-11.8c0.7-3.9,4.3-7.3,7.2-11.8
	c-1.9-1.7-4.6-4-7-6.5C47.3,113.7,47.3,98.6,58,87.6c8.2-8.4,16.6-16.7,25-25c11.3-11,26.3-11.1,37.6-0.1c2.3,2.2,4.3,4.8,6.9,7.7
	c2.1-2,3.4-3.6,5-4.7c2.1-1.4,4.3-2.7,6.7-3.7c3.9-1.7,8.2-2.6,11.8-4.7c39.2-23.5,81.4-37.9,126.9-42.5c9.5-0.9,19-1.3,28.5-1.8
	c4.2-0.2,8.2,0.3,9.9,5c1.7,4.8-1.3,7.6-4.6,10.1c-36.1,27.5-71,56.5-104.5,87.1c-1.2,1.1-2.3,2.2-3.7,3.5
	c7.9,6.3,5.4,15.5,6.9,23.5c0.9,4.7,1.8,9.6,1.6,14.4c-0.1,3.7-1.8,7.4-2.9,11.1c21.6,21.7,43.9,44.2,66.2,66.7
	c3-3.2,6.4-6.8,10.1-10.7c0.2,0.2-0.2-0.4-0.7-1c-4.9-6.1-4.4-10.2,2.1-15c4.5-3.3,9.1-6.6,13.9-10c-9.9-9.9-19.5-19.4-29.1-29
	c-7.9-7.9-7.9-13.7-0.1-21.4c26.6-26.6,53.5-52.9,79.8-79.8c11.9-12.2,26.4-18.2,42.7-20.4c28.1-3.7,54.9,2.1,81,11.8
	c7.3,2.7,12.7,7.7,15.5,15c10.6,27.8,16.7,56.3,11.6,86.2c-2.5,14.5-8.2,27.3-19.2,37.7c-10.2,9.6-19.9,19.8-29.9,29.7
	c-4.3,4.3-8.5,4.7-11.8,1.2c-3.1-3.3-2.7-7.2,1.5-11.4c9.7-9.7,19.1-19.7,29.2-29c10.1-9.3,14.7-21,16.4-34.1
	c3.4-25.7-2.1-50.1-11-73.9c-1-2.8-3.6-5.9-6.2-6.9c-27.6-10.8-55.9-16.9-85.6-9.8c-9,2.2-16.6,6.7-23.2,13.3
	c-25.7,25.9-51.6,51.6-77.4,77.4c-1.1,1.1-2.5,2-3.6,2.8c10.8,10.8,21.1,21,31.7,31.6c0.9-0.6,2.4-1.5,3.8-2.5
	c10.5-7.5,20.7-15.4,31.5-22.5c5-3.2,10.9-6.1,16.7-6.8c18.6-2.2,32.2,14.5,26.8,32.5c-1.3,4.4-3.7,8.6-6.3,12.4
	c-8.2,11.8-16.7,23.3-25.2,35.1c0.8,0.9,1.4,1.6,2,2.3c9.5,9.6,19,19.3,29.1,29.4c8-8.1,15.6-15.7,23.1-23.3
	c1.9-1.9,3.8-3.9,5.8-5.8c3.9-3.8,7.9-4.1,11.1-0.9c3.2,3.1,3,7.3-0.8,11.1c-7.1,7.2-14.4,14.4-21.6,21.6c-2.7,2.7-5.4,5.5-8.2,8.2
	c-6.2,5.9-12.7,6-18.8,0c-9.1-8.9-18.1-18-27.1-27c-1-1-2.1-1.9-3.5-3.2c-3.2,4.4-6.2,8.5-9.2,12.6c-5.5,7.5-8.9,8.2-16.7,2.7
	c-3.3,3.6-6.7,7.3-9.7,10.6C340,298.5,364.2,322.8,388.7,347.5z M141.4,77.7c-22.6,22.8-45.1,45.5-68.5,69.1c1.1,0.7,2.8,1.5,4,2.7
	c15.4,15.2,30.6,30.6,46,45.7c1.9,1.8,4.7,3.2,7.3,3.6c6.4,1.1,12.8,1.6,19.2,2c1.9,0.1,4.4-0.8,5.8-2.1
	c13.3-13,26.4-26.1,39.4-39.3c1.3-1.4,2.2-3.9,2.1-5.8c-0.4-6.9-1.1-13.8-2-20.7c-0.2-1.6-1.3-3.3-2.4-4.4c-15.9-16-32-32-48-47.9
	C143.4,79.5,142.3,78.6,141.4,77.7z M381.8,431.2c14.3,14.3,28.7,29.1,43.5,43.5c13.5,13.2,33.6,13.1,46.4,0.1
	c12.7-12.9,12.3-33-1-46.4c-13.1-13.2-26.3-26.2-39.3-39.4c-1.3-1.4-2.2-3.2-3.2-4.6C412.1,400.7,397,415.9,381.8,431.2z
	 M119.1,384.4c-14.3,14.4-28.5,28.6-42.7,42.9c-1.2,1.3-2.5,2.5-3.6,3.9c-6.7,8.6-8.8,18.2-6.1,28.7c6.4,24.2,36,32.1,54.4,14.4
	c12.2-11.7,24-23.9,36-35.8c2.7-2.7,5.6-5.3,8.1-7.7C149.7,415.2,134.7,400.1,119.1,384.4z M102.4,197.5
	c-12-12.1-24.1-24.2-36.2-36.5C42,200.3,27.8,243.3,23.9,289.9C50.4,258.7,76.7,227.8,102.4,197.5z M286.1,28.3
	c-46.8,4.1-90.1,18.1-129,42.2c12.2,12.5,24.2,24.7,35.8,36.7C223.8,81,254.8,54.8,286.1,28.3z M376.4,359
	c-24.1-24.3-48.2-48.7-72-72.6c-7.3,7.4-14.9,15.1-21.4,21.7c23.8,23.9,47.9,48.3,71.9,72.5C362.1,373.3,369.6,365.8,376.4,359z
	 M241.1,268.4c7.8-7.9,15.4-15.5,22.1-22.3c-22.1-22.2-44.5-44.8-66.4-67c-7.3,7.3-14.8,14.9-22.2,22.3
	C196.5,223.5,218.8,245.9,241.1,268.4z M300.1,215.7c11.3,11.3,22.1,22.3,33.1,33.3c0.1,0,0.5-0.3,0.7-0.7
	c13.8-19.1,27.6-38.1,41.3-57.2c1.6-2.3,2.7-5.2,3.2-8c1.4-7.3-4-13.4-11.4-12.3c-3.6,0.5-7.4,2.3-10.5,4.4
	c-11.5,8-22.8,16.3-34.2,24.5C314.8,205.2,307.2,210.6,300.1,215.7z M416.6,374c-4.6-4.5-9.2-8.9-13.8-13.5c-2-2-4.1-2.5-6.3-0.4
	c-13.4,13.3-26.8,26.6-40,40.1c-0.9,1-1.3,4.1-0.5,5c4.7,5.2,9.8,10,14.7,14.8C386,404.7,401,389.6,416.6,374z M176.4,419.7
	c4.5-4.6,8.8-9.1,13.2-13.6c2.2-2.2,2.7-4.3,0.3-6.7c-13.3-13.2-26.4-26.5-39.9-39.6c-1-1-4.4-1.2-5.4-0.3c-5.1,4.5-9.9,9.6-14.3,14
	C145.8,389,160.8,404.1,176.4,419.7z M117.4,79.1c-1.9-1.7-4.2-3.7-6.4-5.8c-6.2-5.9-12-5.9-18.1,0.1c-6.2,6.1-12.1,12.5-18.5,18.4
	c-15.1,13.7-11.3,18.5,0.6,29.4c0.2,0.2,0.6,0.2,0.6,0.2C89.3,107.4,103,93.6,117.4,79.1z"/>
</svg>
