<?xml version="1.0" encoding="utf-8"?>
<!-- Generator: Adobe Illustrator 26.4.1, SVG Export Plug-In . SVG Version: 6.00 Build 0)  -->
<svg version="1.1" id="Слой_1" xmlns="http://www.w3.org/2000/svg" xmlns:xlink="http://www.w3.org/1999/xlink" x="0px" y="0px"
	 viewBox="0 0 336 72" style="enable-background:new 0 0 336 72;" xml:space="preserve">
<style type="text/css">
	.st0{fill-rule:evenodd;clip-rule:evenodd;fill:url(#SVGID_1_);}
	.st1{fill-rule:evenodd;clip-rule:evenodd;fill:url(#SVGID_00000027585621266090504000000003498297991167950723_);}
	.st2{fill-rule:evenodd;clip-rule:evenodd;fill:url(#SVGID_00000018937144052074698030000015788818322710682784_);}
	.st3{fill-rule:evenodd;clip-rule:evenodd;fill:url(#SVGID_00000080172828508681293860000007338074923154059955_);}
	.st4{fill-rule:evenodd;clip-rule:evenodd;fill:url(#SVGID_00000150818396370050741470000005618964687350892706_);}
	.st5{fill-rule:evenodd;clip-rule:evenodd;fill:url(#SVGID_00000087394207313052012970000017379271954468175750_);}
	.st6{fill-rule:evenodd;clip-rule:evenodd;fill:url(#SVGID_00000012472374357286945610000005684915683987055804_);}
	.st7{fill-rule:evenodd;clip-rule:evenodd;fill:url(#SVGID_00000137810970005041407660000002393131216590225085_);}
	.st8{fill-rule:evenodd;clip-rule:evenodd;fill:url(#SVGID_00000019674191183031128840000016096147610291212181_);}
	.st9{fill-rule:evenodd;clip-rule:evenodd;fill:url(#SVGID_00000166672051756967518630000015060865306615582121_);}
	.st10{fill-rule:evenodd;clip-rule:evenodd;fill:url(#SVGID_00000093875240724951577100000017885122198619257491_);}
	.st11{fill-rule:evenodd;clip-rule:evenodd;fill:url(#SVGID_00000123440142745216316930000016313257093334006406_);}
	.st12{fill-rule:evenodd;clip-rule:evenodd;fill:url(#SVGID_00000092448917464626123610000017560633946637745068_);}
	.st13{fill-rule:evenodd;clip-rule:evenodd;fill:url(#SVGID_00000182507096232493711070000015500968433121447601_);}
	.st14{fill-rule:evenodd;clip-rule:evenodd;fill:url(#SVGID_00000154421834649361345880000010484093247287136702_);}
	.st15{fill-rule:evenodd;clip-rule:evenodd;fill:url(#SVGID_00000129921571252280009870000007636010453233505410_);}
	.st16{fill-rule:evenodd;clip-rule:evenodd;fill:url(#SVGID_00000168836318634667971570000008577447180547426963_);}
	.st17{fill-rule:evenodd;clip-rule:evenodd;fill:url(#SVGID_00000165203823554701845170000017985629825670101671_);}
	.st18{fill-rule:evenodd;clip-rule:evenodd;fill:url(#SVGID_00000007401474332046573830000012374745560130068401_);}
	.st19{fill-rule:evenodd;clip-rule:evenodd;fill:url(#SVGID_00000093865525878475652770000016932253726030858136_);}
	.st20{fill-rule:evenodd;clip-rule:evenodd;fill:url(#SVGID_00000043433919179157715100000015927109276912148912_);}
	.st21{fill-rule:evenodd;clip-rule:evenodd;fill:url(#SVGID_00000062188975589630346290000006490802911149355175_);}
	.st22{fill-rule:evenodd;clip-rule:evenodd;fill:url(#SVGID_00000139981276078453314930000017893001245648643500_);}
	.st23{fill-rule:evenodd;clip-rule:evenodd;fill:url(#SVGID_00000087381890986060464320000007850150319577878945_);}
	.st24{fill-rule:evenodd;clip-rule:evenodd;fill:url(#SVGID_00000100366915602385629400000017616184660806623900_);}
	.st25{fill-rule:evenodd;clip-rule:evenodd;fill:url(#SVGID_00000101075030148902527830000007721693236065716871_);}
	.st26{fill-rule:evenodd;clip-rule:evenodd;fill:url(#SVGID_00000024708651073898842150000017767007047401311876_);}
	.st27{fill-rule:evenodd;clip-rule:evenodd;fill:url(#SVGID_00000057830827121140481550000014924473566854987408_);}
	.st28{fill-rule:evenodd;clip-rule:evenodd;fill:url(#SVGID_00000065055011839703798090000002647850956086337981_);}
	.st29{fill-rule:evenodd;clip-rule:evenodd;fill:url(#SVGID_00000138552581659894820600000013602245127947030186_);}
	.st30{fill-rule:evenodd;clip-rule:evenodd;fill:url(#SVGID_00000054959221083753055540000011869210669164884391_);}
	.st31{fill-rule:evenodd;clip-rule:evenodd;fill:url(#SVGID_00000126294253947062409530000016743112432171743886_);}
	.st32{fill-rule:evenodd;clip-rule:evenodd;fill:url(#SVGID_00000072241462590471926620000014106570581482429620_);}
	.st33{fill-rule:evenodd;clip-rule:evenodd;fill:url(#SVGID_00000034779351187912220360000006149364651892619193_);}
	.st34{fill-rule:evenodd;clip-rule:evenodd;fill:url(#SVGID_00000078014414453525454200000017608360799718415498_);}
	.st35{fill-rule:evenodd;clip-rule:evenodd;fill:url(#SVGID_00000036236785092547678880000007514425926168139142_);}
	.st36{fill-rule:evenodd;clip-rule:evenodd;fill:url(#SVGID_00000053517609319432515420000005056027624450827680_);}
	.st37{fill-rule:evenodd;clip-rule:evenodd;fill:url(#SVGID_00000011731115970712696070000009904046595924521864_);}
	.st38{fill-rule:evenodd;clip-rule:evenodd;fill:url(#SVGID_00000136401850070706992460000009182182616861353659_);}
	.st39{fill-rule:evenodd;clip-rule:evenodd;fill:url(#SVGID_00000127742777692736055600000004725523095707347890_);}
	.st40{fill-rule:evenodd;clip-rule:evenodd;fill:url(#SVGID_00000153701143304616890360000010615601749598407062_);}
	.st41{fill-rule:evenodd;clip-rule:evenodd;fill:url(#SVGID_00000018208889032791403610000007574924251599627193_);}
	.st42{fill-rule:evenodd;clip-rule:evenodd;fill:url(#SVGID_00000155857756847049925960000010076582557143386270_);}
	.st43{fill-rule:evenodd;clip-rule:evenodd;fill:url(#SVGID_00000127020478820289631130000010974386730024531110_);}
	.st44{fill:#D9B37C;}
</style>
<g>
	<linearGradient id="SVGID_1_" gradientUnits="userSpaceOnUse" x1="19.1888" y1="21.4508" x2="29.9301" y2="26.6082">
		<stop  offset="0" style="stop-color:#634E42"/>
		<stop  offset="0.5191" style="stop-color:#CA9E67"/>
		<stop  offset="0.9975" style="stop-color:#634E42"/>
		<stop  offset="1" style="stop-color:#634E42"/>
	</linearGradient>
	<path class="st0" d="M30.1,28.3c-0.7-3.1-3.7-4.4-6.4-6c-2.3-1.5-3.4-2.2-5.3-4.1c-0.4,2.1-0.4,3.5,0.3,4.7
		c1.8,3.1,7.8,4.8,10.7,6.3c-1-2.5-5.4-3.7-7.9-5.5C24.3,24.6,28.2,25.8,30.1,28.3z"/>
	
		<linearGradient id="SVGID_00000047777127388030234960000015352373926159715219_" gradientUnits="userSpaceOnUse" x1="19.1288" y1="27.6185" x2="30.2336" y2="31.3831">
		<stop  offset="0" style="stop-color:#634E42"/>
		<stop  offset="0.5191" style="stop-color:#CA9E67"/>
		<stop  offset="0.9975" style="stop-color:#634E42"/>
		<stop  offset="1" style="stop-color:#634E42"/>
	</linearGradient>
	<path style="fill-rule:evenodd;clip-rule:evenodd;fill:url(#SVGID_00000047777127388030234960000015352373926159715219_);" d="
		M30.4,32c-0.9-1.9-2.9-2.8-4.8-3.4c-4.7-1.7-4.6-0.8-6.9-3.4c0.1,1.4,0,3,0.4,3.7c1,1.5,3.2,2.6,8.6,3.2c0.8,0.1,1.6,0.4,2.2,0.6
		c-0.5-1.5-6.4-3.1-8.3-3.8C23.5,29,28.9,30.7,30.4,32z"/>
	
		<linearGradient id="SVGID_00000052105645351403818890000012839940600575041160_" gradientUnits="userSpaceOnUse" x1="19.3353" y1="32.3549" x2="29.6258" y2="34.4699">
		<stop  offset="0" style="stop-color:#634E42"/>
		<stop  offset="0.5191" style="stop-color:#CA9E67"/>
		<stop  offset="0.9975" style="stop-color:#634E42"/>
		<stop  offset="1" style="stop-color:#634E42"/>
	</linearGradient>
	<path style="fill-rule:evenodd;clip-rule:evenodd;fill:url(#SVGID_00000052105645351403818890000012839940600575041160_);" d="
		M29.7,34.5c-1.2-2.6-5.4-1.5-8.1-2.4c-1.1-0.4-1.7-1.1-2.3-1.4c-0.4,3.7,3.1,4.3,7.5,4.3c0.7,0,2.5,0.2,2.9,0.2
		c-0.6-1.1-6.6-1-8-1.8C23,33.3,28.4,33.8,29.7,34.5z"/>
	
		<linearGradient id="SVGID_00000085244837523160332240000011776103722602689437_" gradientUnits="userSpaceOnUse" x1="19.8953" y1="36.3243" x2="29.5427" y2="37.3739">
		<stop  offset="0" style="stop-color:#634E42"/>
		<stop  offset="0.5191" style="stop-color:#CA9E67"/>
		<stop  offset="0.9975" style="stop-color:#634E42"/>
		<stop  offset="1" style="stop-color:#634E42"/>
	</linearGradient>
	<path style="fill-rule:evenodd;clip-rule:evenodd;fill:url(#SVGID_00000085244837523160332240000011776103722602689437_);" d="
		M29.5,37.3c-0.3-1.5-3.4-1.1-4.7-1.2c-0.5-0.1-2,0.1-2.9-0.2c-1-0.3-1.5-0.8-2.1-0.9c-0.2,3.1,2.8,3.4,6.5,3.2
		c0.6,0,2.9-0.3,3.2-0.3c-0.6-0.9-5.8-0.4-6.9-1C23.7,36.7,28.4,36.7,29.5,37.3z"/>
	
		<linearGradient id="SVGID_00000128448082883207260440000012380797434603498414_" gradientUnits="userSpaceOnUse" x1="2.2986" y1="5.0555" x2="19.9872" y2="20.4086">
		<stop  offset="0" style="stop-color:#634E42"/>
		<stop  offset="0.5191" style="stop-color:#CA9E67"/>
		<stop  offset="0.9975" style="stop-color:#634E42"/>
		<stop  offset="1" style="stop-color:#634E42"/>
	</linearGradient>
	<path style="fill-rule:evenodd;clip-rule:evenodd;fill:url(#SVGID_00000128448082883207260440000012380797434603498414_);" d="
		M3.1,0.3c1.5,6.3,6.3,8.8,11.7,13c0.8,0.6,2,1.3,1.9,2c0.1,1.8-0.5,1.3-2.4,0.2C8.2,12,6.4,8.9,6.1,9c-1,0.3,3.3,4.6,4.4,5.4
		c1.9,1.4,3.7,2.3,6.2,3.5v2.5C7.2,15.9-1.7,9.6,3.1,0.3z"/>
	
		<linearGradient id="SVGID_00000011710244747619229770000007529673392256032663_" gradientUnits="userSpaceOnUse" x1="0" y1="18.3359" x2="17.1747" y2="18.3359">
		<stop  offset="0" style="stop-color:#634E42"/>
		<stop  offset="0.5191" style="stop-color:#CA9E67"/>
		<stop  offset="0.9975" style="stop-color:#634E42"/>
		<stop  offset="1" style="stop-color:#634E42"/>
	</linearGradient>
	<path style="fill-rule:evenodd;clip-rule:evenodd;fill:url(#SVGID_00000011710244747619229770000007529673392256032663_);" d="
		M0.6,10.3c1.9,2.6,4.7,5.2,8.5,7.4c3.2,1.8,5.7,3.1,7.4,4.2c0.2,0.1,0.3,0.2,0.3,0.5c0,0.7,0,1.6-0.1,1.5c-3.1-1.6-3.8-2.2-5.3-3
		c-4.5-2.6-6.6-3.9-6.8-3.7c-0.3,0.5,11,6.9,12.2,7.5l0.3,1.7C6.8,22.7-2.5,16.1,0.6,10.3z"/>
	
		<linearGradient id="SVGID_00000012464852951796818480000017920074788863556520_" gradientUnits="userSpaceOnUse" x1="1.4648" y1="25.5362" x2="17.8919" y2="25.5362">
		<stop  offset="0" style="stop-color:#634E42"/>
		<stop  offset="0.5191" style="stop-color:#CA9E67"/>
		<stop  offset="0.9975" style="stop-color:#634E42"/>
		<stop  offset="1" style="stop-color:#634E42"/>
	</linearGradient>
	<path style="fill-rule:evenodd;clip-rule:evenodd;fill:url(#SVGID_00000012464852951796818480000017920074788863556520_);" d="
		M1.6,19c1.3,2.5,3.8,3.6,6.7,4.9c2.3,1,4.7,1.9,6.9,2.9c0.7,0.3,2.2,1,2.3,1.6c0.4,1.3-0.6,0.9-2.2,0.4C10,27.2,8,25.4,7.8,25.5
		c-0.2,0.1,0.5,0.9,1.6,1.6c2.7,1.9,3.5,1.7,8,3.1l0.5,1.9C9.9,30.5,0.2,26.2,1.6,19z"/>
	
		<linearGradient id="SVGID_00000108268585110590322820000005426258403915029387_" gradientUnits="userSpaceOnUse" x1="5.911" y1="32.7786" x2="19.2365" y2="32.7786">
		<stop  offset="0" style="stop-color:#634E42"/>
		<stop  offset="0.5191" style="stop-color:#CA9E67"/>
		<stop  offset="0.9975" style="stop-color:#634E42"/>
		<stop  offset="1" style="stop-color:#634E42"/>
	</linearGradient>
	<path style="fill-rule:evenodd;clip-rule:evenodd;fill:url(#SVGID_00000108268585110590322820000005426258403915029387_);" d="
		M18.3,34l-0.7-0.9c-3.8-1-8.5-2-11.7-4c1.3,5.9,6.5,7.1,13.3,7.3l-0.6-0.9c-4-0.9-5.3-0.9-8.8-3c2.4,0.6,4.9,1.4,7.5,1.9
		C18.4,34.6,19,34.9,18.3,34z"/>
	
		<linearGradient id="SVGID_00000064352732319760607070000013515972160212589993_" gradientUnits="userSpaceOnUse" x1="11.5903" y1="39.0159" x2="20.3178" y2="39.0159">
		<stop  offset="0" style="stop-color:#634E42"/>
		<stop  offset="0.5191" style="stop-color:#CA9E67"/>
		<stop  offset="0.9975" style="stop-color:#634E42"/>
		<stop  offset="1" style="stop-color:#634E42"/>
	</linearGradient>
	<path style="fill-rule:evenodd;clip-rule:evenodd;fill:url(#SVGID_00000064352732319760607070000013515972160212589993_);" d="
		M19.7,38L19,37.4c-2.6,0.1-5.2,0.3-7.4,0c1.6,3.9,6.2,3.9,8.7,2.2L19.8,39c-2.7,0.3-2.9,0.7-5.5-0.1c1.6-0.1,2.6,0,4.3-0.2
		C19.4,38.5,20.3,38.5,19.7,38z"/>
	
		<linearGradient id="SVGID_00000174581290791415352950000016780770068922335105_" gradientUnits="userSpaceOnUse" x1="36.0413" y1="65.8237" x2="41.9546" y2="65.8237">
		<stop  offset="0" style="stop-color:#634E42"/>
		<stop  offset="0.5191" style="stop-color:#CA9E67"/>
		<stop  offset="0.9975" style="stop-color:#634E42"/>
		<stop  offset="1" style="stop-color:#634E42"/>
	</linearGradient>
	<path style="fill-rule:evenodd;clip-rule:evenodd;fill:url(#SVGID_00000174581290791415352950000016780770068922335105_);" d="
		M42,61.9l-0.6-0.5l-1.2,3c-0.2-1.4,0.3-2.1,0.9-3.3l-0.7-0.5L36,70.9C40.1,72.1,40.8,65.4,42,61.9z"/>
	
		<linearGradient id="SVGID_00000144327657898752921110000000654061957337709996_" gradientUnits="userSpaceOnUse" x1="32.4412" y1="62.2259" x2="40.0287" y2="66.4726">
		<stop  offset="0" style="stop-color:#634E42"/>
		<stop  offset="0.5191" style="stop-color:#CA9E67"/>
		<stop  offset="0.9975" style="stop-color:#634E42"/>
		<stop  offset="1" style="stop-color:#634E42"/>
	</linearGradient>
	<path style="fill-rule:evenodd;clip-rule:evenodd;fill:url(#SVGID_00000144327657898752921110000000654061957337709996_);" d="
		M39.6,60.2l-0.6-0.5l-2.8,3.9c0.2-1.4,1.6-3.3,2.5-4.3l-0.6-0.7l-7.2,9.6C34.6,70.4,37.6,63.3,39.6,60.2z"/>
	
		<linearGradient id="SVGID_00000056424794536176865520000006799429483865810321_" gradientUnits="userSpaceOnUse" x1="27.9187" y1="57.1802" x2="34.1279" y2="63.1785">
		<stop  offset="0" style="stop-color:#634E42"/>
		<stop  offset="0.5191" style="stop-color:#CA9E67"/>
		<stop  offset="0.9975" style="stop-color:#634E42"/>
		<stop  offset="1" style="stop-color:#634E42"/>
	</linearGradient>
	<path style="fill-rule:evenodd;clip-rule:evenodd;fill:url(#SVGID_00000056424794536176865520000006799429483865810321_);" d="
		M37.3,57.3l-0.4-0.7L32.6,61c0.5-1.4,2.9-3.9,3.9-4.7l-0.4-0.8l-9.8,9.6C29.5,68,34.8,60,37.3,57.3z"/>
	
		<linearGradient id="SVGID_00000156549470552559924690000016371488651106913711_" gradientUnits="userSpaceOnUse" x1="57.3147" y1="24.8936" x2="68.7789" y2="21.6463">
		<stop  offset="0" style="stop-color:#634E42"/>
		<stop  offset="0.5191" style="stop-color:#CA9E67"/>
		<stop  offset="0.9975" style="stop-color:#634E42"/>
		<stop  offset="1" style="stop-color:#634E42"/>
	</linearGradient>
	<path style="fill-rule:evenodd;clip-rule:evenodd;fill:url(#SVGID_00000156549470552559924690000016371488651106913711_);" d="
		M56.9,27.9c0.7-3.1,3.7-4.4,6.4-6c2.3-1.5,3.4-2.2,5.3-4.1c0.4,2.1,0.4,3.5-0.3,4.7c-1.8,3.1-7.8,4.8-10.7,6.3
		c1-2.5,5.4-3.7,7.9-5.5C62.6,24.2,58.7,25.5,56.9,27.9z"/>
	
		<linearGradient id="SVGID_00000040573218043277585470000006885349385424035250_" gradientUnits="userSpaceOnUse" x1="57.0435" y1="30.4442" x2="68.3102" y2="27.1962">
		<stop  offset="0" style="stop-color:#634E42"/>
		<stop  offset="0.5191" style="stop-color:#CA9E67"/>
		<stop  offset="0.9975" style="stop-color:#634E42"/>
		<stop  offset="1" style="stop-color:#634E42"/>
	</linearGradient>
	<path style="fill-rule:evenodd;clip-rule:evenodd;fill:url(#SVGID_00000040573218043277585470000006885349385424035250_);" d="
		M56.5,31.6c0.9-1.9,2.9-2.8,4.8-3.4c4.7-1.7,4.6-0.8,6.9-3.4c-0.1,1.4,0,3-0.4,3.7c-1,1.5-3.2,2.6-8.6,3.2
		c-0.8,0.1-1.6,0.4-2.2,0.6c0.5-1.5,6.4-3.1,8.3-3.8C63.4,28.6,58,30.4,56.5,31.6z"/>
	
		<linearGradient id="SVGID_00000119079189900356985430000004570425932393007022_" gradientUnits="userSpaceOnUse" x1="57.6894" y1="34.4946" x2="67.8584" y2="31.8565">
		<stop  offset="0" style="stop-color:#634E42"/>
		<stop  offset="0.5191" style="stop-color:#CA9E67"/>
		<stop  offset="0.9975" style="stop-color:#634E42"/>
		<stop  offset="1" style="stop-color:#634E42"/>
	</linearGradient>
	<path style="fill-rule:evenodd;clip-rule:evenodd;fill:url(#SVGID_00000119079189900356985430000004570425932393007022_);" d="
		M57.2,34.2c1.2-2.6,5.4-1.5,8.1-2.4c1.1-0.4,1.7-1.1,2.3-1.4c0.4,3.7-3.1,4.3-7.5,4.3c-0.7,0-2.5,0.2-2.9,0.2c0.6-1.1,6.6-1,8-1.8
		C63.9,32.9,58.5,33.4,57.2,34.2z"/>
	
		<linearGradient id="SVGID_00000012442618230179985430000007768658600494749327_" gradientUnits="userSpaceOnUse" x1="57.3673" y1="37.6355" x2="67.2486" y2="35.559">
		<stop  offset="0" style="stop-color:#634E42"/>
		<stop  offset="0.5191" style="stop-color:#CA9E67"/>
		<stop  offset="0.9975" style="stop-color:#634E42"/>
		<stop  offset="1" style="stop-color:#634E42"/>
	</linearGradient>
	<path style="fill-rule:evenodd;clip-rule:evenodd;fill:url(#SVGID_00000012442618230179985430000007768658600494749327_);" d="
		M57.4,36.9c0.3-1.5,3.4-1.1,4.7-1.2c0.5-0.1,2,0.1,2.9-0.2c1-0.3,1.5-0.8,2.1-0.9c0.2,3.1-2.8,3.4-6.5,3.2c-0.6,0-2.9-0.3-3.2-0.3
		c0.6-0.9,5.8-0.4,6.9-1C63.2,36.4,58.5,36.4,57.4,36.9z"/>
	
		<linearGradient id="SVGID_00000171683105650526649020000011734780307294697121_" gradientUnits="userSpaceOnUse" x1="57.441" y1="39.4409" x2="65.4015" y2="39.4409">
		<stop  offset="0" style="stop-color:#634E42"/>
		<stop  offset="0.5191" style="stop-color:#CA9E67"/>
		<stop  offset="0.9975" style="stop-color:#634E42"/>
		<stop  offset="1" style="stop-color:#634E42"/>
	</linearGradient>
	<path style="fill-rule:evenodd;clip-rule:evenodd;fill:url(#SVGID_00000171683105650526649020000011734780307294697121_);" d="
		M57.5,39.4c0.3-1,1.9-1,3.4-0.8c3.1,0.4,2.4,0.3,4.5-0.3c-0.1,2.5-2.5,2.5-5.4,2c-0.5-0.1-2.3-0.5-2.5-0.5c0.5-0.6,4.6,0.2,5.6-0.2
		c-0.8,0.1-2.2-0.2-3.5-0.3C58.8,39.3,58.1,39.2,57.5,39.4z"/>
	
		<linearGradient id="SVGID_00000000190880681634062020000005493501977684100276_" gradientUnits="userSpaceOnUse" x1="56.5625" y1="42.1052" x2="63.0108" y2="42.1052">
		<stop  offset="0" style="stop-color:#634E42"/>
		<stop  offset="0.5191" style="stop-color:#CA9E67"/>
		<stop  offset="0.9975" style="stop-color:#634E42"/>
		<stop  offset="1" style="stop-color:#634E42"/>
	</linearGradient>
	<path style="fill-rule:evenodd;clip-rule:evenodd;fill:url(#SVGID_00000000190880681634062020000005493501977684100276_);" d="
		M57.2,41.5c0.6-1,3.9,0.3,5.9,0.1c-0.5,1.7-2.1,1.8-4.1,1c-0.3-0.1-1.9-0.8-2.4-0.8c0.5-0.4,2.6,0.3,3.3,0.2
		C59.2,41.8,58.4,41.4,57.2,41.5z"/>
	
		<linearGradient id="SVGID_00000106149741480966146600000017505518556394203568_" gradientUnits="userSpaceOnUse" x1="55.964" y1="44.1589" x2="60.1242" y2="44.1589">
		<stop  offset="0" style="stop-color:#634E42"/>
		<stop  offset="0.5191" style="stop-color:#CA9E67"/>
		<stop  offset="0.9975" style="stop-color:#634E42"/>
		<stop  offset="1" style="stop-color:#634E42"/>
	</linearGradient>
	<path style="fill-rule:evenodd;clip-rule:evenodd;fill:url(#SVGID_00000106149741480966146600000017505518556394203568_);" d="
		M56.1,43.4c0.3-0.3,0.9-0.3,1.5,0c0.8,0.3,1.8,1.2,2.5,1c-0.7,1.2-1.7,1-3,0c-0.2-0.2-0.9-0.7-1.1-0.8c0.4-0.2,2.3,1.2,2.9,1.2
		c-0.4-0.2-1-0.6-1.6-1C56.8,43.6,56.4,43.4,56.1,43.4z"/>
	
		<linearGradient id="SVGID_00000167356903004373545920000005625218229861197971_" gradientUnits="userSpaceOnUse" x1="55.4114" y1="45.7038" x2="57.6538" y2="45.7038">
		<stop  offset="0" style="stop-color:#634E42"/>
		<stop  offset="0.5191" style="stop-color:#CA9E67"/>
		<stop  offset="0.9975" style="stop-color:#634E42"/>
		<stop  offset="1" style="stop-color:#634E42"/>
	</linearGradient>
	<path style="fill-rule:evenodd;clip-rule:evenodd;fill:url(#SVGID_00000167356903004373545920000005625218229861197971_);" d="
		M55.5,45c0.2-0.3,0.5-0.2,0.8,0c0.4,0.3,1,1,1.4,0.9c-0.4,1-0.9,0.8-1.6,0c-0.1-0.1-0.5-0.6-0.6-0.7c0.2-0.2,1.2,1,1.5,1
		c-0.2-0.1-0.5-0.5-0.9-0.8C55.9,45.2,55.7,45.1,55.5,45z"/>
	
		<linearGradient id="SVGID_00000057834191435691013670000004775029729343465371_" gradientUnits="userSpaceOnUse" x1="70.1517" y1="10.0189" x2="85.1665" y2="10.0189">
		<stop  offset="0" style="stop-color:#634E42"/>
		<stop  offset="0.5191" style="stop-color:#CA9E67"/>
		<stop  offset="0.9975" style="stop-color:#634E42"/>
		<stop  offset="1" style="stop-color:#634E42"/>
	</linearGradient>
	<path style="fill-rule:evenodd;clip-rule:evenodd;fill:url(#SVGID_00000057834191435691013670000004775029729343465371_);" d="
		M83.8,0c-1.5,6.3-6.3,8.8-11.7,13c-0.8,0.6-2,1.3-1.9,2c-0.1,1.8,0.5,1.3,2.4,0.2c6.1-3.6,7.9-6.7,8.2-6.6c1,0.3-3.3,4.6-4.4,5.4
		c-1.9,1.4-3.7,2.3-6.2,3.5V20C79.7,15.6,88.7,9.3,83.8,0z"/>
	
		<linearGradient id="SVGID_00000104701757826298757080000007956889922959675027_" gradientUnits="userSpaceOnUse" x1="69.7433" y1="17.9888" x2="86.9179" y2="17.9888">
		<stop  offset="0" style="stop-color:#634E42"/>
		<stop  offset="0.5191" style="stop-color:#CA9E67"/>
		<stop  offset="0.9975" style="stop-color:#634E42"/>
		<stop  offset="1" style="stop-color:#634E42"/>
	</linearGradient>
	<path style="fill-rule:evenodd;clip-rule:evenodd;fill:url(#SVGID_00000104701757826298757080000007956889922959675027_);" d="
		M86.3,10c-1.9,2.6-4.7,5.2-8.5,7.4c-3.2,1.8-5.7,3.1-7.4,4.2c-0.2,0.1-0.3,0.2-0.3,0.5c0,0.7,0,1.6,0.1,1.5c3.1-1.6,3.8-2.2,5.3-3
		c4.5-2.6,6.6-3.9,6.8-3.7c0.3,0.5-11,6.9-12.2,7.5L69.7,26C80.1,22.3,89.5,15.8,86.3,10z"/>
	
		<linearGradient id="SVGID_00000041277900764471544250000001948477403555307410_" gradientUnits="userSpaceOnUse" x1="69.026" y1="25.1891" x2="85.4531" y2="25.1891">
		<stop  offset="0" style="stop-color:#634E42"/>
		<stop  offset="0.5191" style="stop-color:#CA9E67"/>
		<stop  offset="0.9975" style="stop-color:#634E42"/>
		<stop  offset="1" style="stop-color:#634E42"/>
	</linearGradient>
	<path style="fill-rule:evenodd;clip-rule:evenodd;fill:url(#SVGID_00000041277900764471544250000001948477403555307410_);" d="
		M85.3,18.6c-1.3,2.5-3.8,3.6-6.7,4.9c-2.3,1-4.7,1.9-6.9,2.9c-0.7,0.3-2.2,1-2.3,1.6c-0.4,1.3,0.6,0.9,2.2,0.4
		c5.3-1.6,7.2-3.4,7.4-3.3c0.2,0.1-0.5,0.9-1.6,1.6c-2.7,1.9-3.5,1.7-8,3.1L69,31.8C77,30.2,86.7,25.8,85.3,18.6z"/>
	
		<linearGradient id="SVGID_00000183218495275911104250000005811580440721087141_" gradientUnits="userSpaceOnUse" x1="67.6814" y1="32.4315" x2="81.007" y2="32.4315">
		<stop  offset="0" style="stop-color:#634E42"/>
		<stop  offset="0.5191" style="stop-color:#CA9E67"/>
		<stop  offset="0.9975" style="stop-color:#634E42"/>
		<stop  offset="1" style="stop-color:#634E42"/>
	</linearGradient>
	<path style="fill-rule:evenodd;clip-rule:evenodd;fill:url(#SVGID_00000183218495275911104250000005811580440721087141_);" d="
		M68.6,33.7l0.7-0.9c3.8-1,8.5-2,11.7-4c-1.3,5.9-6.5,7.1-13.3,7.3l0.6-0.9c4-0.9,5.3-0.9,8.8-3c-2.4,0.6-4.9,1.4-7.5,1.9
		C68.6,34.2,67.9,34.6,68.6,33.7z"/>
	
		<linearGradient id="SVGID_00000129172325841158106720000014612197503862658211_" gradientUnits="userSpaceOnUse" x1="66.6001" y1="38.6688" x2="75.3276" y2="38.6688">
		<stop  offset="0" style="stop-color:#634E42"/>
		<stop  offset="0.5191" style="stop-color:#CA9E67"/>
		<stop  offset="0.9975" style="stop-color:#634E42"/>
		<stop  offset="1" style="stop-color:#634E42"/>
	</linearGradient>
	<path style="fill-rule:evenodd;clip-rule:evenodd;fill:url(#SVGID_00000129172325841158106720000014612197503862658211_);" d="
		M67.2,37.6l0.7-0.5c2.6,0.1,5.2,0.3,7.4,0c-1.6,3.9-6.2,3.9-8.7,2.2l0.5-0.6c2.7,0.3,2.9,0.7,5.5-0.1c-1.6-0.1-2.6,0-4.3-0.2
		C67.5,38.1,66.6,38.2,67.2,37.6z"/>
	
		<linearGradient id="SVGID_00000157274896763274697160000003152734901024099987_" gradientUnits="userSpaceOnUse" x1="64.3588" y1="42.0379" x2="71.1417" y2="42.0379">
		<stop  offset="0" style="stop-color:#634E42"/>
		<stop  offset="0.5191" style="stop-color:#CA9E67"/>
		<stop  offset="0.9975" style="stop-color:#634E42"/>
		<stop  offset="1" style="stop-color:#634E42"/>
	</linearGradient>
	<path style="fill-rule:evenodd;clip-rule:evenodd;fill:url(#SVGID_00000157274896763274697160000003152734901024099987_);" d="
		M65.5,41.1l0.7-0.6c1.9,0.6,3.3,1.1,5,0.8c-0.4,1.2-1.3,1.9-2.3,2.2c-0.9,0.2-3.5-0.3-4.3-1c-0.2-0.2-0.3-0.4-0.1-0.5
		c0.2-0.2,0.5-0.1,0.7,0c1.9,0.5,2.3,0.7,4,0.3c-0.4-0.1-3.6-0.2-3.9-0.8C65.3,41.3,65.4,41.2,65.5,41.1z"/>
	
		<linearGradient id="SVGID_00000154410798889764074800000004513897977627124909_" gradientUnits="userSpaceOnUse" x1="62.0394" y1="44.9827" x2="67.5163" y2="44.9827">
		<stop  offset="0" style="stop-color:#634E42"/>
		<stop  offset="0.5191" style="stop-color:#CA9E67"/>
		<stop  offset="0.9975" style="stop-color:#634E42"/>
		<stop  offset="1" style="stop-color:#634E42"/>
	</linearGradient>
	<path style="fill-rule:evenodd;clip-rule:evenodd;fill:url(#SVGID_00000154410798889764074800000004513897977627124909_);" d="
		M62.6,43.9c0.6-0.5,1-0.2,1.7,0c1.1,0.4,1.7,0.7,3.2,0.4c0.1,0.5-0.4,1.3-1,1.6c-1,0.6-1.8,0.2-2.9-0.3c-0.7-0.3-1.3-0.7-1.5-0.9
		c-0.1-0.1,0-0.3,0.1-0.4c0.1-0.1,0.3,0,0.4,0c1.3,0.5,1.6,0.5,2.7,0.6c-0.3-0.1-2.4-0.6-2.8-0.8C62.5,44.1,62.5,44,62.6,43.9z"/>
	
		<linearGradient id="SVGID_00000055708044170128315840000014636316118469004726_" gradientUnits="userSpaceOnUse" x1="59.3923" y1="46.5097" x2="63.537" y2="46.5097">
		<stop  offset="0" style="stop-color:#634E42"/>
		<stop  offset="0.5191" style="stop-color:#CA9E67"/>
		<stop  offset="0.9975" style="stop-color:#634E42"/>
		<stop  offset="1" style="stop-color:#634E42"/>
	</linearGradient>
	<path style="fill-rule:evenodd;clip-rule:evenodd;fill:url(#SVGID_00000055708044170128315840000014636316118469004726_);" d="
		M59.9,45.4c0.5-0.2,0.8,0,1.3,0.3c0.7,0.5,1.2,0.8,2.3,0.9c0,0.4-0.5,0.9-1.1,1c-0.9,0.3-1.4-0.2-2.1-0.8c-0.4-0.4-0.8-0.7-1-0.9
		c-0.1-0.1,0.1-0.2,0.1-0.3c0.1-0.1,0.2,0,0.3,0.1c0.9,0.6,1.1,0.7,1.9,0.9c-0.2-0.1-1.7-0.8-2-1.1C59.8,45.5,59.9,45.4,59.9,45.4z"
		/>
	
		<linearGradient id="SVGID_00000104668812742091695240000000213732974048222111_" gradientUnits="userSpaceOnUse" x1="57.5855" y1="47.7247" x2="60.8399" y2="47.7247">
		<stop  offset="0" style="stop-color:#634E42"/>
		<stop  offset="0.5191" style="stop-color:#CA9E67"/>
		<stop  offset="0.9975" style="stop-color:#634E42"/>
		<stop  offset="1" style="stop-color:#634E42"/>
	</linearGradient>
	<path style="fill-rule:evenodd;clip-rule:evenodd;fill:url(#SVGID_00000104668812742091695240000000213732974048222111_);" d="
		M58.1,46.7c0.4-0.1,0.7,0.1,1,0.4c0.5,0.5,0.8,0.8,1.7,1c-0.1,0.3-0.5,0.6-1,0.7c-0.7,0.1-1.1-0.3-1.6-0.9
		c-0.3-0.4-0.6-0.7-0.7-0.9c-0.1-0.1,0.1-0.2,0.2-0.2c0.1-0.1,0.2,0.1,0.2,0.1c0.3,0.3,0.2,0.3,0.8,0.6c-0.1-0.1-0.6-0.5-0.8-0.8
		C58,46.7,58,46.7,58.1,46.7z"/>
	
		<linearGradient id="SVGID_00000036954551608711903000000017674062995618786964_" gradientUnits="userSpaceOnUse" x1="55.6846" y1="48.1289" x2="58.2223" y2="48.1289">
		<stop  offset="0" style="stop-color:#634E42"/>
		<stop  offset="0.5191" style="stop-color:#CA9E67"/>
		<stop  offset="0.9975" style="stop-color:#634E42"/>
		<stop  offset="1" style="stop-color:#634E42"/>
	</linearGradient>
	<path style="fill-rule:evenodd;clip-rule:evenodd;fill:url(#SVGID_00000036954551608711903000000017674062995618786964_);" d="
		M56.1,47.3c0.3-0.1,0.5,0.1,0.8,0.3c0.4,0.4,0.7,0.6,1.4,0.8c-0.1,0.2-0.4,0.5-0.8,0.6c-0.6,0.1-0.9-0.2-1.2-0.7
		c-0.2-0.3-0.4-0.5-0.5-0.7c0-0.1,0.1-0.1,0.1-0.2c0.1,0,0.1,0,0.2,0.1c0.2,0.2,0.2,0.2,0.6,0.4C56.5,47.9,56.2,47.6,56.1,47.3
		C56,47.4,56,47.3,56.1,47.3z"/>
	
		<linearGradient id="SVGID_00000176023444119431477870000000930066487734155937_" gradientUnits="userSpaceOnUse" x1="39.7688" y1="67.1962" x2="46.855" y2="67.1962">
		<stop  offset="0" style="stop-color:#634E42"/>
		<stop  offset="0.5191" style="stop-color:#CA9E67"/>
		<stop  offset="0.9975" style="stop-color:#634E42"/>
		<stop  offset="1" style="stop-color:#634E42"/>
	</linearGradient>
	<path style="fill-rule:evenodd;clip-rule:evenodd;fill:url(#SVGID_00000176023444119431477870000000930066487734155937_);" d="
		M44.3,62.4l0.7,7.4c-0.1,0.4-1.3,1.8-1.6,2.2c-0.5-0.5-1.6-1.8-1.7-2.2l0.8-7.4c0.3,0,0.5,0.1,0.7,0.1l-0.1,2.7
		c0,0.2,0.2,0.3,0.2,0.3c0.1,0,0.2-0.1,0.2-0.3l0-2.7C43.8,62.5,44,62.5,44.3,62.4z"/>
	
		<linearGradient id="SVGID_00000073682478838058416710000007057956106146038963_" gradientUnits="userSpaceOnUse" x1="45.5124" y1="66.54" x2="51.571" y2="65.0665">
		<stop  offset="0" style="stop-color:#634E42"/>
		<stop  offset="0.5191" style="stop-color:#CA9E67"/>
		<stop  offset="0.9975" style="stop-color:#634E42"/>
		<stop  offset="1" style="stop-color:#634E42"/>
	</linearGradient>
	<path style="fill-rule:evenodd;clip-rule:evenodd;fill:url(#SVGID_00000073682478838058416710000007057956106146038963_);" d="
		M44.9,61.9l0.6-0.5l1.2,3c0.2-1.4-0.3-2.1-0.9-3.3l0.7-0.5l4.2,10.2C46.7,72.1,46.1,65.4,44.9,61.9z"/>
	
		<linearGradient id="SVGID_00000153675008131905756860000003022137091749790082_" gradientUnits="userSpaceOnUse" x1="48.9688" y1="66.2435" x2="55.6114" y2="60.6328">
		<stop  offset="0" style="stop-color:#634E42"/>
		<stop  offset="0.5191" style="stop-color:#CA9E67"/>
		<stop  offset="0.9975" style="stop-color:#634E42"/>
		<stop  offset="1" style="stop-color:#634E42"/>
	</linearGradient>
	<path style="fill-rule:evenodd;clip-rule:evenodd;fill:url(#SVGID_00000153675008131905756860000003022137091749790082_);" d="
		M47.2,60.2l0.6-0.5l2.8,3.9c-0.2-1.4-1.6-3.3-2.5-4.3l0.6-0.7l7.2,9.6C52.3,70.4,49.3,63.3,47.2,60.2z"/>
	
		<linearGradient id="SVGID_00000006672185928826590510000015879024686481837242_" gradientUnits="userSpaceOnUse" x1="52.6943" y1="64.1453" x2="59.5337" y2="55.4473">
		<stop  offset="0" style="stop-color:#634E42"/>
		<stop  offset="0.5191" style="stop-color:#CA9E67"/>
		<stop  offset="0.9975" style="stop-color:#634E42"/>
		<stop  offset="1" style="stop-color:#634E42"/>
	</linearGradient>
	<path style="fill-rule:evenodd;clip-rule:evenodd;fill:url(#SVGID_00000006672185928826590510000015879024686481837242_);" d="
		M49.5,57.3l0.4-0.7l4.3,4.4c-0.5-1.4-2.9-3.9-3.9-4.7l0.4-0.8l9.8,9.6C57.4,68,52.1,60,49.5,57.3z"/>
	
		<linearGradient id="SVGID_00000030456322787898997640000014813580570291768976_" gradientUnits="userSpaceOnUse" x1="8.4496" y1="37.8332" x2="75.0754" y2="37.8332">
		<stop  offset="0" style="stop-color:#634E42"/>
		<stop  offset="0.5191" style="stop-color:#CA9E67"/>
		<stop  offset="0.9975" style="stop-color:#634E42"/>
		<stop  offset="1" style="stop-color:#634E42"/>
	</linearGradient>
	<path style="fill-rule:evenodd;clip-rule:evenodd;fill:url(#SVGID_00000030456322787898997640000014813580570291768976_);" d="
		M52.8,36.8c0.3,9-0.4,16.1-7.3,21.4c-0.4,0.3-0.9,0.6-1.3,1v0h0c0,0-0.1,0-0.1,0.1l-0.6-7l-0.6,7c0,0-0.1,0-0.1-0.1h0v0
		c-1.2-0.8-2.2-1.6-3-2.4c-5.3-5.1-5.9-11.8-5.6-20c1.2-0.7,6.9-2,8.7-2.4l0.6,5.8l0.6-5.8C46,34.8,52.1,36.4,52.8,36.8L52.8,36.8z
		 M48.7,48.9h-1.8v2.4h0.5v-1.9h0.9v1.9h0.5L48.7,48.9L48.7,48.9z M45,48.9h-0.5v0.4v1.9H45v-1.9h0.9v1.9h0.5v-1.9v-0.4h-0.5h-0.1
		H45L45,48.9L45,48.9z M46.6,44.4c0,0.9,0.2,1.5,0.7,2c0.5,0.5,1.1,0.7,1.9,0.7c0.6,0,1.2-0.2,1.6-0.5c0.4-0.4,0.7-0.9,0.8-1.5
		L50,45c-0.1,0.6-0.3,0.9-0.8,0.9c-0.3,0-0.5-0.1-0.6-0.3c-0.1-0.2-0.2-0.6-0.2-1.2c0-1.1,0.3-1.6,0.8-1.6c0.2,0,0.4,0.1,0.5,0.2
		c0.1,0.2,0.2,0.4,0.2,0.8l1.6-0.1c-0.1-0.7-0.3-1.2-0.7-1.6c-0.4-0.4-1-0.6-1.8-0.6c-0.8,0-1.5,0.3-1.9,0.8
		C46.8,42.9,46.6,43.6,46.6,44.4L46.6,44.4z M38,45.4l1.1,1.7h2h0.1h1.3l0.3-1.1h1.5l0.3,1.1h1.8l-1.8-5.5h-1.9L41.1,47l-1.9-2.8
		l1.7-2.5h-1.6l-0.9,1.5l-0.9-1.5h-2.1l1.8,2.6l-1.9,2.8H37L38,45.4L38,45.4z M43.1,44.8h0.9l-0.5-1.6L43.1,44.8L43.1,44.8z
		 M43.8,48.9l-0.5,1.3l-0.6-1.3h-0.5l0.8,1.9c0,0-0.1,0.1-0.1,0.1c0,0-0.1,0-0.1,0h-0.2v0.4h0.3c0.1,0,0.2,0,0.3-0.1
		c0.1,0,0.1-0.1,0.2-0.2c0.1-0.1,0.1-0.2,0.2-0.3l0.7-1.9H43.8L43.8,48.9z M40.1,48.9v2.4h0.5v-0.9h0.5c0.2,0,0.3,0,0.4-0.1
		c0.1-0.1,0.2-0.1,0.3-0.3c0.1-0.1,0.1-0.2,0.1-0.4c0-0.1,0-0.3-0.1-0.4c-0.1-0.1-0.2-0.2-0.3-0.3c-0.1-0.1-0.3-0.1-0.4-0.1h-0.5
		h-0.1H40.1L40.1,48.9z M40.5,49.9h0.5c0.1,0,0.1,0,0.1,0c0,0,0.1-0.1,0.1-0.1c0,0,0-0.1,0-0.2c0-0.1,0-0.1,0-0.2
		c0,0-0.1-0.1-0.1-0.1c0,0-0.1,0-0.1,0h-0.5V49.9L40.5,49.9z M38.8,51.2v-1.9h1v-0.4c-0.5,0-1,0-1.5,0v2.4H38.8L38.8,51.2z
		 M46.5,20.3c-1.7,1.9-2.4,7.3-1.9,10.4l-1-0.3l-1.8,0.6C41.4,26.7,44.9,20.1,46.5,20.3L46.5,20.3z M46.5,31.2l5.5,1.5
		c0.4-0.6,0.8-1.2,1-1.4c4.8-3.8,1.7-5.5,3.6-8.2c0.6-0.8,3-2.3,5-3.6c2-1.3,3.8-2.5,4-2.2c0.3,0.5-4.9,3.5-7.1,5.1
		c-1.1,0.8-1.5,1-1.7,2.2l-0.1,0.9l2.7-2.1c1.6-1.2,8-5.1,8.5-6.6c0.2-0.7,0-1.9,0-3.9c-3.7,3.3-8.2,6.1-12.3,8.9
		c-2.3,1.9-0.7,2.6-1.5,4c-0.6,1.2-1.3,2-2.1,2.9c-2.6-3.5-4.3-4.7-3.7-9.7c0-0.2,0.2-0.4,0.4-0.4c0.7-0.3,1.5-0.5,2.3-0.7
		c1.4-0.3,1.3,0.2,1.6,1.2c0.4-0.5,0.8-1.2,0.9-1.8c0.2-1.1-0.6-2-1.8-2.4c-1.1-0.4-2.1-0.3-2.7-1.5c-0.3-0.5-1.3-0.7-2.1-0.9
		c-3.8-1-7.9,1.2-9.6,4.1c-1.3,2.3-3.5,6.8-4,9.7c-0.2-0.3-0.4-0.6-0.5-0.9c-0.8-1.5,0.8-2.2-1.5-4c-4.1-2.8-8.6-5.5-12.3-8.9
		c0,2-0.3,3.2,0,3.9c0.5,1.5,6.8,5.4,8.5,6.6l2.7,2.1l-0.1-0.9c-0.2-1.2-0.6-1.5-1.7-2.2c-2.3-1.6-7.4-4.6-7.1-5.1
		c0.3-0.4,2,0.9,4,2.2c2.1,1.3,4.5,2.8,5,3.6c1.9,2.8-1.1,4.4,3.6,8.2c0.3,0.2,0.7,1.2,1,2l6-1.8c-0.6-4.1,0.4-7.5,3.3-10.5
		c1.2-1.2,1-1.1-0.3-0.3c-2,1.2-3.5,2.5-4.8,4.3c-0.6,0.8-0.8,1.3-0.4-0.1c0.5-1.8,1.4-3.1,3.3-4c1.2-0.6,2.5-1.1,3.8-1.7
		c0.4-0.2,0.7-0.3,1.1-0.4c1.8-0.7,2.2-0.8-0.1-0.4c-1.6,0.2-3.1,0.6-4.7,1.1c-2.5,0.8-4,2-5.1,4.2c-0.7,1.3-0.6,1-0.3-0.2
		c0.5-1.8,1.8-3,3.4-3.9c0.3-0.2,0.7-0.4,1.1-0.6c0.2-0.1,1.1-0.5,1.1-0.7c-0.1-0.2-3.9,1.3-4.4,1.4c-0.8,0.3-0.9,0.4-0.4-0.3
		c0.3-0.4,0.7-0.9,1.1-1.2c0.7-0.5,1.5-0.9,2.2-1.3c0-0.1-0.1-0.1-0.1-0.2c-1.1,0.4-2.1,0.8-3.2,1.3c0.8-1,1.9-1.4,3-1.8
		c0.2-0.1,0.8-0.1,0.7-0.3c0-0.1-0.3,0-0.7,0c-0.8,0.1-1.9,0.5-2.2,0.5c0.8-1.1,2-1.5,3.2-2c-0.4,0.1-0.8,0.1-1.3,0.2
		c1.8-1.4,6.2-1.7,8.1-0.7c0.7,0.4,0.7,0.7,0.2,1.2c-0.1,0.1-0.2,0.3-0.3,0.4c-0.2,1.2-0.9,2-2.1,2.5c1.4-0.5,2.8-0.4,4.3-0.1
		c-0.7,0.2-1.1,0.3-1.5,0.4c-0.9,0.2-1.4,0.7-1.5,1.6c-0.3,2.3,0.1,4.4,1,6.5c0.2,0.4,1.8,3.4,1.7,3.6c-0.2,0.2-2.2-2.5-2.5-2.8
		c-1.1-1.7-1.2-3.6-1-5.5C45.4,24.8,44.4,28.8,46.5,31.2L46.5,31.2z M43.5,30.8c-4,1.2-8,2.3-12,3.5c0,0-1.3,5.1,0.9,14.2
		c1.4,6.1,5.9,11.3,11.1,14.7l0,0l0,0c5.2-3.4,9.7-8.6,11.1-14.7c2.2-9.2,0.9-14.2,0.9-14.2C51.5,33.1,47.5,32,43.5,30.8L43.5,30.8z
		 M44.2,15.2c-0.3,0-0.3,0-0.2-0.3c0.4-0.6,0.7-0.5,1.5-0.8C45.2,14.1,45,14,44.8,14c-0.5-0.2-0.3-0.2,0.2-0.2c1,0,1.9,0.4,2.1,0.9
		c0.1,0.2,0.1,0.2-0.1,0.3c-0.4,0.2-0.8,0.4-1.2,0.4C45.2,15.5,44.7,15.3,44.2,15.2L44.2,15.2z M48.6,15.5c0.1-0.2,0.5-0.6,0.6-0.6
		c1,0.3,2,0.5,2.9,1c1.1,0.5,1.1,1.6,0.5,2.4c-0.4-0.9-0.9-1.1-4.5-1.4C48.3,16.5,48.4,16,48.6,15.5L48.6,15.5z M43.5,61.6
		c3.3-2.1,8.4-6.7,9.9-13.3c1.9-8.2,0.7-12.8,0.7-12.8s-1.5-0.5-5.8-1.6c-3.3-0.9-4.5-1.4-4.8-1.5c-0.4,0.2-1.5,0.7-4.8,1.5
		c-4.3,1.1-5.8,1.6-5.8,1.6s-1.2,4.6,0.7,12.8C35.2,54.9,40.2,59.5,43.5,61.6z"/>
	
		<linearGradient id="SVGID_00000171712556671409772610000012063594277751802244_" gradientUnits="userSpaceOnUse" x1="21.5467" y1="39.4703" x2="29.4712" y2="40.2268">
		<stop  offset="0" style="stop-color:#634E42"/>
		<stop  offset="0.5191" style="stop-color:#CA9E67"/>
		<stop  offset="0.9975" style="stop-color:#634E42"/>
		<stop  offset="1" style="stop-color:#634E42"/>
	</linearGradient>
	<path style="fill-rule:evenodd;clip-rule:evenodd;fill:url(#SVGID_00000171712556671409772610000012063594277751802244_);" d="
		M29.5,39.8c-0.3-1-1.9-1-3.4-0.8c-3.1,0.4-2.4,0.3-4.5-0.3c0.1,2.5,2.5,2.5,5.4,2c0.5-0.1,2.3-0.5,2.5-0.5
		c-0.5-0.6-4.6,0.2-5.6-0.2c0.8,0.1,2.2-0.2,3.5-0.3C28.1,39.6,28.8,39.6,29.5,39.8z"/>
	
		<linearGradient id="SVGID_00000008112205045727782120000001019612872798248600_" gradientUnits="userSpaceOnUse" x1="23.9302" y1="42.1738" x2="30.3512" y2="42.7066">
		<stop  offset="0" style="stop-color:#634E42"/>
		<stop  offset="0.5191" style="stop-color:#CA9E67"/>
		<stop  offset="0.9975" style="stop-color:#634E42"/>
		<stop  offset="1" style="stop-color:#634E42"/>
	</linearGradient>
	<path style="fill-rule:evenodd;clip-rule:evenodd;fill:url(#SVGID_00000008112205045727782120000001019612872798248600_);" d="
		M29.8,41.9c-0.6-1-3.9,0.3-5.9,0.1c0.5,1.7,2.1,1.8,4.1,1c0.3-0.1,1.9-0.8,2.4-0.8c-0.5-0.4-2.6,0.3-3.3,0.2
		C27.7,42.1,28.6,41.7,29.8,41.9z"/>
	
		<linearGradient id="SVGID_00000013155451143678477490000017627491493618635681_" gradientUnits="userSpaceOnUse" x1="26.7937" y1="44.506" x2="30.954" y2="44.506">
		<stop  offset="0" style="stop-color:#634E42"/>
		<stop  offset="0.5191" style="stop-color:#CA9E67"/>
		<stop  offset="0.9975" style="stop-color:#634E42"/>
		<stop  offset="1" style="stop-color:#634E42"/>
	</linearGradient>
	<path style="fill-rule:evenodd;clip-rule:evenodd;fill:url(#SVGID_00000013155451143678477490000017627491493618635681_);" d="
		M30.8,43.7c-0.3-0.3-0.9-0.3-1.5,0c-0.8,0.3-1.8,1.2-2.5,1c0.7,1.2,1.7,1,3,0c0.2-0.2,0.9-0.7,1.1-0.8c-0.4-0.2-2.3,1.2-2.9,1.2
		c0.4-0.2,1-0.6,1.6-1C30.1,43.9,30.5,43.8,30.8,43.7z"/>
	
		<linearGradient id="SVGID_00000086692868072058655070000010605858413311516574_" gradientUnits="userSpaceOnUse" x1="29.2642" y1="46.0509" x2="31.5065" y2="46.0509">
		<stop  offset="0" style="stop-color:#634E42"/>
		<stop  offset="0.5191" style="stop-color:#CA9E67"/>
		<stop  offset="0.9975" style="stop-color:#634E42"/>
		<stop  offset="1" style="stop-color:#634E42"/>
	</linearGradient>
	<path style="fill-rule:evenodd;clip-rule:evenodd;fill:url(#SVGID_00000086692868072058655070000010605858413311516574_);" d="
		M31.4,45.4c-0.2-0.3-0.5-0.2-0.8,0c-0.4,0.3-1,1-1.4,0.9c0.4,1,0.9,0.8,1.6,0c0.1-0.1,0.5-0.6,0.6-0.7c-0.2-0.2-1.2,1-1.5,1
		c0.2-0.1,0.5-0.5,0.9-0.8C31,45.6,31.3,45.4,31.4,45.4z"/>
	
		<linearGradient id="SVGID_00000013186316421017846220000000488502804225972148_" gradientUnits="userSpaceOnUse" x1="15.7762" y1="42.385" x2="22.5591" y2="42.385">
		<stop  offset="0" style="stop-color:#634E42"/>
		<stop  offset="0.5191" style="stop-color:#CA9E67"/>
		<stop  offset="0.9975" style="stop-color:#634E42"/>
		<stop  offset="1" style="stop-color:#634E42"/>
	</linearGradient>
	<path style="fill-rule:evenodd;clip-rule:evenodd;fill:url(#SVGID_00000013186316421017846220000000488502804225972148_);" d="
		M21.4,41.4l-0.7-0.6c-1.9,0.6-3.3,1.1-5,0.8c0.4,1.2,1.3,1.9,2.3,2.2c0.9,0.2,3.5-0.3,4.3-1c0.2-0.2,0.3-0.4,0.1-0.5
		c-0.2-0.2-0.5-0.1-0.7,0c-1.9,0.5-2.3,0.7-4,0.3c0.4-0.1,3.6-0.2,3.9-0.8C21.6,41.7,21.6,41.6,21.4,41.4z"/>
	
		<linearGradient id="SVGID_00000150079786568723578940000003813156162583904923_" gradientUnits="userSpaceOnUse" x1="19.4016" y1="45.3298" x2="24.8785" y2="45.3298">
		<stop  offset="0" style="stop-color:#634E42"/>
		<stop  offset="0.5191" style="stop-color:#CA9E67"/>
		<stop  offset="0.9975" style="stop-color:#634E42"/>
		<stop  offset="1" style="stop-color:#634E42"/>
	</linearGradient>
	<path style="fill-rule:evenodd;clip-rule:evenodd;fill:url(#SVGID_00000150079786568723578940000003813156162583904923_);" d="
		M24.3,44.3c-0.6-0.5-1-0.2-1.7,0c-1.1,0.4-1.7,0.7-3.2,0.4c-0.1,0.5,0.4,1.3,1,1.6c1,0.6,1.8,0.2,2.9-0.3c0.7-0.3,1.3-0.7,1.5-0.9
		c0.1-0.1,0-0.3-0.1-0.4c-0.1-0.1-0.3,0-0.4,0c-1.3,0.5-1.6,0.5-2.7,0.6c0.3-0.1,2.4-0.6,2.8-0.8C24.5,44.5,24.4,44.4,24.3,44.3z"/>
	
		<linearGradient id="SVGID_00000148639518754321274750000002339216715483431049_" gradientUnits="userSpaceOnUse" x1="23.3809" y1="46.8568" x2="27.5257" y2="46.8568">
		<stop  offset="0" style="stop-color:#634E42"/>
		<stop  offset="0.5191" style="stop-color:#CA9E67"/>
		<stop  offset="0.9975" style="stop-color:#634E42"/>
		<stop  offset="1" style="stop-color:#634E42"/>
	</linearGradient>
	<path style="fill-rule:evenodd;clip-rule:evenodd;fill:url(#SVGID_00000148639518754321274750000002339216715483431049_);" d="
		M27,45.7c-0.5-0.2-0.8,0-1.3,0.3c-0.7,0.5-1.2,0.8-2.3,0.9c0,0.4,0.5,0.9,1.1,1c0.9,0.3,1.4-0.2,2.1-0.8c0.4-0.4,0.8-0.7,1-0.9
		c0.1-0.1-0.1-0.2-0.1-0.3c-0.1-0.1-0.2,0-0.3,0.1c-0.9,0.6-1.1,0.7-1.9,0.9c0.2-0.1,1.7-0.8,2-1.1C27.1,45.9,27.1,45.8,27,45.7z"/>
	
		<linearGradient id="SVGID_00000057841267570784022040000009028312670049409948_" gradientUnits="userSpaceOnUse" x1="26.078" y1="48.0718" x2="29.3324" y2="48.0718">
		<stop  offset="0" style="stop-color:#634E42"/>
		<stop  offset="0.5191" style="stop-color:#CA9E67"/>
		<stop  offset="0.9975" style="stop-color:#634E42"/>
		<stop  offset="1" style="stop-color:#634E42"/>
	</linearGradient>
	<path style="fill-rule:evenodd;clip-rule:evenodd;fill:url(#SVGID_00000057841267570784022040000009028312670049409948_);" d="
		M28.8,47c-0.4-0.1-0.7,0.1-1,0.4c-0.5,0.5-0.8,0.8-1.7,1c0.1,0.3,0.5,0.6,1,0.7c0.7,0.1,1.1-0.3,1.6-0.9c0.3-0.4,0.6-0.7,0.7-0.9
		c0.1-0.1-0.1-0.2-0.2-0.2c-0.1-0.1-0.2,0.1-0.2,0.1c-0.3,0.3-0.2,0.3-0.8,0.6c0.1-0.1,0.6-0.5,0.8-0.8C29,47.1,28.9,47.1,28.8,47z"
		/>
	
		<linearGradient id="SVGID_00000157302517250009662600000009639184925791754919_" gradientUnits="userSpaceOnUse" x1="28.6957" y1="48.476" x2="31.2333" y2="48.476">
		<stop  offset="0" style="stop-color:#634E42"/>
		<stop  offset="0.5191" style="stop-color:#CA9E67"/>
		<stop  offset="0.9975" style="stop-color:#634E42"/>
		<stop  offset="1" style="stop-color:#634E42"/>
	</linearGradient>
	<path style="fill-rule:evenodd;clip-rule:evenodd;fill:url(#SVGID_00000157302517250009662600000009639184925791754919_);" d="
		M30.8,47.7c-0.3-0.1-0.5,0.1-0.8,0.3c-0.4,0.4-0.7,0.6-1.4,0.8c0.1,0.2,0.4,0.5,0.8,0.6c0.6,0.1,0.9-0.2,1.2-0.7
		c0.2-0.3,0.4-0.5,0.5-0.7c0-0.1-0.1-0.1-0.1-0.2c-0.1,0-0.1,0-0.2,0.1c-0.2,0.2-0.2,0.2-0.6,0.4C30.4,48.2,30.8,47.9,30.8,47.7
		C30.9,47.7,30.9,47.7,30.8,47.7z"/>
</g>
<g>
	<path class="st44" d="M130.7,10.2l2.2,5.4c0.3,0.8,0.6,1.5,0.8,2.3h0.1c0.2-0.6,0.4-1.4,0.7-2.3l1.7-5.4h1.7l-2.3,6.3
		c-0.6,1.6-1.3,3.7-2.2,5c-0.8,1.1-1.7,1.7-2.8,1.7c-0.4,0-0.6,0-0.9-0.1l0.1-1.3c0.1,0,0.3,0.1,0.6,0.1c1.2,0,2-1.3,2.4-2.3
		c0.1-0.3,0.1-0.5,0-0.8l-3.8-8.7H130.7z"/>
	<path class="st44" d="M147.6,10.2V23H146V11.5h-5.2V23h-1.6V10.2H147.6z"/>
	<path class="st44" d="M150,10.3c0.7-0.1,1.7-0.2,2.9-0.2c1.5,0,2.6,0.3,3.4,1c0.7,0.6,1.1,1.5,1.1,2.7c0,1.2-0.3,2.1-0.9,2.7
		c-0.8,1-2.2,1.4-3.6,1.4c-0.4,0-0.8,0-1.1-0.1V23H150V10.3z M151.6,16.5c0.3,0.1,0.7,0.1,1.1,0.1c1.8,0,3-1,3-2.7
		c0-1.6-1-2.5-2.8-2.5c-0.6,0-1.1,0.1-1.3,0.1V16.5z"/>
	<path class="st44" d="M160.1,19l-1.2,4h-1.6l3.9-12.8h1.9L167,23h-1.7l-1.2-4H160.1z M163.8,17.8l-1.1-3.6
		c-0.2-0.9-0.4-1.7-0.6-2.5h-0.1c-0.2,0.8-0.4,1.7-0.6,2.5l-1.1,3.6H163.8z"/>
	<path class="st44" d="M168.5,10.4c0.7-0.2,1.7-0.3,2.8-0.3c1.5,0,2.5,0.3,3.3,0.9c0.6,0.5,1,1.3,1,2.3c0,1.3-0.8,2.3-2.1,2.8v0.1
		c1.3,0.3,2.6,1.4,2.6,3.2c0,1.1-0.4,1.9-1,2.5c-0.8,0.8-2.2,1.2-4.1,1.2c-1.1,0-1.9-0.1-2.4-0.1V10.4z M170.1,15.6h1.3
		c1.6,0,2.6-0.9,2.6-2.2c0-1.4-0.9-2.1-2.6-2.1c-0.6,0-1,0.1-1.3,0.1V15.6z M170.1,21.8c0.3,0.1,0.7,0.1,1.2,0.1
		c1.7,0,3.1-0.7,3.1-2.5c0-1.7-1.4-2.5-3.1-2.5h-1.2V21.8z"/>
	<path class="st44" d="M185.8,10.2V23h-1.6V11.5h-3.8v4c0,2.9-0.1,5.9-1.8,7c-0.4,0.3-1.1,0.5-1.7,0.5l-0.2-1.3
		c0.4-0.1,0.9-0.3,1.1-0.6c0.9-0.9,1.1-3.2,1.1-5.5v-5.5H185.8z"/>
	<path class="st44" d="M187.2,23c0.2-0.4,0.4-0.8,0.5-1.2c0.5-1.4,0.7-3.2,1.7-4.3c0.3-0.3,0.6-0.5,1-0.6v0
		c-1.5-0.3-2.6-1.4-2.6-3.2c0-1.2,0.5-2.1,1.2-2.7c0.7-0.6,1.9-0.9,3.3-0.9c1,0,2,0.1,2.8,0.3V23h-1.6v-5.5h-1
		c-0.7,0-1.3,0.2-1.7,0.6c-0.8,0.9-1.1,2.8-1.5,4c-0.1,0.3-0.2,0.6-0.4,1H187.2z M193.5,11.5c-0.2-0.1-0.7-0.1-1.3-0.1
		c-1.6,0-2.8,0.8-2.8,2.4c0,1.6,1.3,2.5,3,2.5c0.4,0,0.9,0,1.1,0V11.5z"/>
	<path class="st44" d="M199.1,10.2v5.5h1.8c0.3-3.6,2.2-5.7,4.9-5.7c2.9,0,4.7,2.6,4.7,6.5c0,4.5-2.2,6.7-4.9,6.7
		c-2.7,0-4.6-2.3-4.7-6.1h-1.7V23h-1.6V10.2H199.1z M205.6,21.8c2.1,0,3.2-2.5,3.2-5.3c0-2.5-0.9-5.2-3.2-5.2s-3.2,2.6-3.2,5.3
		C202.4,19.3,203.5,21.8,205.6,21.8L205.6,21.8z"/>
	<path class="st44" d="M213.8,10.2v11.5h3.7V10.2h1.6v11.5h3.7V10.2h1.6v11.5l1,0l-0.1,4.3h-1.3l-0.1-3h-11.8V10.2H213.8z"/>
	<path class="st44" d="M229.5,19l-1.2,4h-1.6l3.9-12.8h1.9l3.9,12.8h-1.7l-1.2-4H229.5z M233.2,17.8l-1.1-3.6
		c-0.2-0.9-0.4-1.7-0.6-2.5h-0.1c-0.2,0.8-0.4,1.7-0.6,2.5l-1.1,3.6H233.2z"/>
	<path class="st44" d="M237.4,23c0.2-0.4,0.4-0.8,0.5-1.2c0.5-1.4,0.7-3.2,1.7-4.3c0.3-0.3,0.6-0.5,1-0.6v0
		c-1.5-0.3-2.6-1.4-2.6-3.2c0-1.2,0.5-2.1,1.2-2.7c0.7-0.6,1.9-0.9,3.3-0.9c1,0,2,0.1,2.8,0.3V23h-1.6v-5.5h-1
		c-0.7,0-1.3,0.2-1.7,0.6c-0.8,0.9-1.1,2.8-1.5,4c-0.1,0.3-0.2,0.6-0.4,1H237.4z M243.7,11.5c-0.2-0.1-0.7-0.1-1.3-0.1
		c-1.6,0-2.8,0.8-2.8,2.4c0,1.6,1.3,2.5,3,2.5c0.4,0,0.9,0,1.1,0V11.5z"/>
	<path class="st44" d="M253.3,10.2v5.7h0.4l3.9-5.7h1.9l-4.3,5.9c2,0.3,2.7,1.6,3.2,3.3c0.4,1.3,0.7,2.5,1.2,3.6h-1.7
		c-0.4-0.9-0.7-2-1-3.1c-0.5-1.6-1.2-2.8-3.2-2.8h-0.4V23h-1.6V10.2H253.3z"/>
	<path class="st44" d="M265,23.2c-3,0-5.1-2.5-5.1-6.5c0-4.1,2.2-6.7,5.3-6.7c3.1,0,5.1,2.6,5.1,6.5C270.3,21,267.9,23.2,265,23.2
		L265,23.2z M265.1,21.8c2.3,0,3.5-2.5,3.5-5.3c0-2.5-1.1-5.2-3.5-5.2s-3.5,2.6-3.5,5.3C261.6,19.3,262.8,21.8,265.1,21.8
		L265.1,21.8z"/>
	<path class="st44" d="M281.8,17.4c-0.1-1.7-0.2-3.8-0.2-5.4h-0.1c-0.4,1.5-0.9,3.1-1.4,4.7l-2.1,6.1H277l-1.9-6
		c-0.6-1.8-1-3.4-1.3-4.9h-0.1c0,1.6-0.1,3.6-0.2,5.5l-0.3,5.5h-1.5l0.9-12.8h2l2,6.1c0.5,1.6,0.9,3,1.2,4.4h0
		c0.3-1.3,0.7-2.7,1.2-4.4l2-6.1h2l0.8,12.8h-1.6L281.8,17.4z"/>
	<path class="st44" d="M294.2,10.2V23h-1.6V11.5h-5.2V23h-1.6V10.2H294.2z"/>
	<path class="st44" d="M298.5,19l-1.2,4h-1.6l3.9-12.8h1.9l3.9,12.8h-1.7l-1.2-4H298.5z M302.3,17.8l-1.1-3.6
		c-0.2-0.9-0.4-1.7-0.6-2.5h-0.1c-0.2,0.8-0.4,1.7-0.6,2.5l-1.1,3.6H302.3z"/>
	<path class="st44" d="M308.5,10.2v5.4h5.4v-5.4h1.6V23H314v-6h-5.4v6h-1.6V10.2H308.5z"/>
	<path class="st44" d="M319.4,10.2v5.1c0,2.1,0,3.7-0.2,5.5l0,0c0.6-1.3,1.3-2.8,2.2-4.3l3.6-6.4h1.6V23h-1.5v-5.1
		c0-2.3,0-3.8,0.2-5.5l-0.1,0c-0.6,1.5-1.3,2.9-2.1,4.3l-3.5,6.3H318V10.2H319.4z"/>
	<path class="st44" d="M328.1,23c0.2-0.4,0.4-0.8,0.5-1.2c0.5-1.4,0.7-3.2,1.7-4.3c0.3-0.3,0.6-0.5,1-0.6v0
		c-1.5-0.3-2.6-1.4-2.6-3.2c0-1.2,0.5-2.1,1.2-2.7c0.7-0.6,1.9-0.9,3.3-0.9c1,0,2,0.1,2.8,0.3V23h-1.6v-5.5h-1
		c-0.7,0-1.3,0.2-1.7,0.6c-0.8,0.9-1.1,2.8-1.5,4c-0.1,0.3-0.2,0.6-0.4,1H328.1z M334.4,11.5c-0.2-0.1-0.7-0.1-1.3-0.1
		c-1.6,0-2.8,0.8-2.8,2.4c0,1.6,1.3,2.5,3,2.5c0.4,0,0.9,0,1.1,0V11.5z"/>
	<path class="st44" d="M132.3,46.6l3.2,5.1h-2.9l-3.1-5.1l3.1-5.2h2.9L132.3,46.6z M137.6,46.6l3.2,5.1h-2.9l-3.1-5.1l3.1-5.2h2.9
		L137.6,46.6z"/>
	<path class="st44" d="M152.8,55.4l-1.6-3.3c-0.7-1.3-1.1-2.2-1.6-3.3h-0.1c-0.4,1.1-0.8,2-1.4,3.3l-1.5,3.3h-4.7l5.3-9.2l-5.1-9
		h4.7l1.6,3.3c0.5,1.1,0.9,2,1.4,3h0.1c0.4-1.2,0.8-2,1.2-3l1.5-3.3h4.7l-5.1,8.9l5.4,9.3H152.8z"/>
	<path class="st44" d="M164,50.7l-1.3,4.7h-4.3l5.6-18.2h5.4l5.7,18.2h-4.4l-1.4-4.7H164z M168.6,47.6l-1.1-3.9
		c-0.3-1.1-0.6-2.5-0.9-3.5h-0.1c-0.2,1.1-0.5,2.5-0.8,3.5l-1.1,3.9H168.6z"/>
	<path class="st44" d="M190.1,54.9c-0.7,0.4-2.5,0.8-4.6,0.8c-6.3,0-9.5-3.9-9.5-9.1c0-6.2,4.4-9.6,9.9-9.6c2.1,0,3.8,0.4,4.5,0.8
		l-0.9,3.3c-0.8-0.4-2-0.7-3.5-0.7c-3.2,0-5.8,2-5.8,6c0,3.6,2.2,5.9,5.8,5.9c1.3,0,2.6-0.2,3.5-0.6L190.1,54.9z"/>
	<path class="st44" d="M209.3,37.2v3.4h-6.9v14.8h-4.1V37.2H209.3z"/>
	<path class="st44" d="M211.5,37.4c1.3-0.2,3-0.4,5.6-0.4c2.5,0,4.3,0.5,5.6,1.5c1.2,0.9,1.9,2.4,1.9,4.2c0,1.8-0.6,3.3-1.7,4.3
		c-1.4,1.3-3.5,1.9-5.9,1.9c-0.5,0-1,0-1.4-0.1v6.5h-4.1V37.4z M215.6,45.7c0.4,0.1,0.8,0.1,1.4,0.1c2.2,0,3.5-1.1,3.5-2.9
		c0-1.7-1.2-2.7-3.2-2.7c-0.8,0-1.4,0.1-1.7,0.1V45.7z"/>
	<path class="st44" d="M229.9,37.2l2.6,6.6c0.5,1.3,0.9,2.4,1.3,3.5h0.1c0.2-0.8,0.5-2,1-3.6l2-6.5h4.3l-3.4,9
		c-1.1,2.8-2.2,5.6-3.6,7.2c-1.2,1.5-2.7,2.4-4.8,2.4c-0.9,0-1.5-0.1-2-0.3l0.3-3.3c0.4,0.1,0.8,0.1,1.4,0.1c1.3,0,2.1-0.9,2.5-1.7
		c0.1-0.3,0.1-0.6-0.1-0.9l-6.1-12.6H229.9z"/>
	<path class="st44" d="M257.5,37.2v18.2h-4.1V40.6H247v14.8h-4.1V37.2H257.5z"/>
	<path class="st44" d="M275.8,37.2v18.2h-4.1V40.6h-6.5v14.8h-4.1V37.2H275.8z"/>
	<path class="st44" d="M278.2,41.4h2.8l3.2,5.2l-3.1,5.1h-2.8l3.2-5.1L278.2,41.4z M283.4,41.4h2.8l3.2,5.2l-3.2,5.1h-2.8l3.2-5.1
		L283.4,41.4z"/>
</g>
</svg>
