<?xml version="1.0" encoding="utf-8"?>
<!-- Generator: Adobe Illustrator 26.4.1, SVG Export Plug-In . SVG Version: 6.00 Build 0)  -->
<svg version="1.1" id="Layer_1" xmlns="http://www.w3.org/2000/svg" xmlns:xlink="http://www.w3.org/1999/xlink" x="0px" y="0px"
	 viewBox="0 0 20 20" style="enable-background:new 0 0 20 20;" xml:space="preserve">
<style type="text/css">
	.st0{fill:none;}
	.st1{fill:url(#SVGID_1_);}
	.st2{fill-rule:evenodd;clip-rule:evenodd;fill:#FFFFFF;}
</style>
<path class="st0" d="M10,0C4.5,0,0,4.5,0,10c0,1.9,0.5,3.7,1.5,5.3l0.2,0.4l-1,3.7l3.8-1l0.4,0.2C6.4,19.5,8.2,20,10,20h0
	c5.5,0,10-4.5,10-10c0-2.7-1-5.2-2.9-7.1C15.2,1,12.7,0,10,0L10,0z"/>
<linearGradient id="SVGID_1_" gradientUnits="userSpaceOnUse" x1="9.9473" y1="-136.8387" x2="10.0487" y2="-153.9298" gradientTransform="matrix(1 0 0 -1 0 -135.6394)">
	<stop  offset="0" style="stop-color:#57D163"/>
	<stop  offset="1" style="stop-color:#23B33A"/>
</linearGradient>
<path class="st1" d="M10,0C4.5,0,0,4.5,0,10c0,1.9,0.5,3.7,1.5,5.3l0.2,0.4l-1,3.7l3.8-1l0.4,0.2C6.4,19.5,8.2,20,10,20h0
	c5.5,0,10-4.5,10-10c0-2.7-1-5.2-2.9-7.1C15.2,1,12.7,0,10,0z"/>
<path class="st2" d="M7,5C6.8,4.5,6.5,4.5,6.3,4.4l-0.6,0c-0.2,0-0.5,0.1-0.8,0.4c-0.3,0.3-1.1,1-1.1,2.5s1.1,2.9,1.2,3.1
	c0.2,0.2,2.1,3.3,5.1,4.5c2.5,1,3.1,0.8,3.6,0.8c0.6-0.1,1.8-0.7,2-1.4s0.3-1.3,0.2-1.4s-0.3-0.2-0.6-0.4s-1.8-0.9-2.1-1
	s-0.5-0.2-0.7,0.2c-0.2,0.3-0.8,1-1,1.2s-0.4,0.2-0.7,0.1c-0.3-0.2-1.3-0.5-2.4-1.5c-0.9-0.8-1.5-1.8-1.7-2.1s0-0.5,0.1-0.6
	c0.1-0.1,0.3-0.4,0.5-0.5c0.2-0.2,0.2-0.3,0.3-0.5C8,7.5,8,7.3,7.9,7.2C7.8,7,7.3,5.6,7,5"/>
</svg>
