<?xml version="1.0" encoding="utf-8"?>
<!-- Generator: Adobe Illustrator 26.4.1, SVG Export Plug-In . SVG Version: 6.00 Build 0)  -->
<svg version="1.1" id="Layer_1" xmlns="http://www.w3.org/2000/svg" xmlns:xlink="http://www.w3.org/1999/xlink" x="0px" y="0px"
	 viewBox="0 0 512 512" style="enable-background:new 0 0 512 512;" xml:space="preserve">
<style type="text/css">
	.st0{fill:#FFFFFF;}
</style>
<path class="st0" d="M209.6,335.3c-11.6-8.7-20.1-19.2-25.8-31.9c-5.7-12.6-7.4-25.9-6.8-40c-6,0-11.9,0-17.6,0
	c-0.3-0.6-0.6-0.9-0.6-1.2c0.2-13.9-0.9-28,1-41.6c5-36.8,25.3-63.2,59.5-77.2c56.9-23.2,118.5,9.8,131.7,69.8
	c1.8,8.3,1.8,17.1,2.2,25.7c0.3,8,0.1,16,0.1,24.3c-6.2,0-12,0-18.2,0c0.5,14.1-1.1,27.5-6.9,40.2c-5.8,12.7-14.3,23.1-25.9,31.9
	c37.1,11.5,66.6,32.7,88.6,63.9c22,31.3,31,66.4,29.6,104.6c-109.6,0-219.1,0-328.6,0C86.3,439.8,125.9,360.7,209.6,335.3z
	 M331.6,241.7c2.7-31.7-12-59.3-37-73.5c-28.1-16-56.4-14.9-82.8,3.8c-23.8,16.8-33.1,40.9-31.5,69.7
	C230.9,241.7,281.2,241.7,331.6,241.7z M174.3,482.5c54.5,0,108.8,0,163.2,0c0-20.1,0-40,0-59.9c-54.5,0-108.8,0-163.2,0
	C174.3,442.7,174.3,462.5,174.3,482.5z M198.5,263.5c-1.5,25,7,45,28.8,57.6c21.3,12.2,42.9,10.9,62.8-3.5
	c18.2-13.2,25-31.8,23.3-54.1C275.1,263.5,237,263.5,198.5,263.5z M294.8,400.8c0.2-0.7,0.3-1.1,0.3-1.4c0-13.8,0-27.6,0.1-41.3
	c0-2.4-1.4-2.7-3.1-3.1c-24-6.1-48.1-6.1-72.1,0c-2.5,0.6-3.2,1.7-3.1,4.2c0.1,12.8,0,25.6,0.1,38.5c0,1,0.2,2.1,0.3,3.2
	C243.1,400.8,268.8,400.8,294.8,400.8z M152.5,394.7c-23.3,25.3-36.3,54.1-39.2,87.8c13.3,0,26.2,0,39.2,0
	C152.5,453.4,152.5,424.6,152.5,394.7z M398.8,482.6c-3.1-33.8-15.9-62.7-39.2-87.8c0,29.8,0,58.7,0,87.8
	C372.6,482.6,385.4,482.6,398.8,482.6z M316.7,400.8c7.2,0,14,0,21.2,0c0-3.8,0-7.3,0-10.9c-0.1-4.5,1.4-10.1-0.7-13.3
	c-2.5-3.8-7.9-5.8-12.2-8.4c-2.6-1.5-5.3-2.7-8.2-4.2C316.7,376.6,316.7,388.5,316.7,400.8z M195.3,363.4c-7.1,4.3-13.5,8.1-19.9,12
	c-0.6,0.4-1.2,1.3-1.2,2c-0.1,7.7-0.1,15.5-0.1,23.3c7.3,0,14.1,0,21.1,0C195.3,388.5,195.3,376.5,195.3,363.4z"/>
</svg>
